<svg xmlns="http://www.w3.org/2000/svg" enable-background="new 0 0 3000 3000" viewBox="0 0 3000 3000"><path fill="#2d8086" d="M831.26,2592.61c-26.9,1.48-315.72-29.44-342.15,76.88c-26.43,106.32,45.57,22.77,342.15,86.66   c296.58,63.89,447.36,108.13,560.91,44.23c113.54-63.89,392.8,110.58,642.69,36.86c249.89-73.72,500.94,15.66,524.23-111.35   C2582.38,2598.88,1704.54,2544.57,831.26,2592.61z" class="colord3d9ef svgShape"/><path fill="#2d8086" d="M735.54,2596.05c-12.47,110.49,289.46,66.83,415.73,158.03c34.29,24.77,85.25,25.36,126.06,14.37   c107.25-28.9,81.38,10.64,122.52,10.64c187.09,0,164.71-52.76,201.72-46.44c38.17,6.52,220.66-14.4,190.61,9.07   c-47.85,37.37,64.44,53.51,86.78,56.06c78.37,8.92,127.1-49.32,146.95-46.66c18.05,2.41,36.04,5.23,54.13,7.39   c33.87,4.05,67.21,4.24,100.51-3.67c20.16-4.79,38.8-13.59,58.8-18.65c20.01-5.06,40.89-5.77,61.48-6.09   c35.83-0.54,110.5,13.81,108.06-22.71C2401.21,2592.61,1457.08,2571.56,735.54,2596.05z" class="colord3d9ef svgShape"/><path fill="#2d8086" d="M2305.11,1998.99c-83.19,83.19-75.08,111.61-71.04,161.35c3.99,48.63-102.81,58.42-66.51,163.4h-22.78    c0,0-152.23-27.42-133.96-104.55c18.25-77.13,132.93,13.21,134.95-41.6c2.05-54.81-74.08-122.8-43.62-153.23    c30.44-30.46,46.66,70.01,93.36,43.59c46.66-26.45-31.46-95.35-19.28-144.06c12.16-48.71,44.64,6.09,104.52,26.39    c55.15,18.71,21.61-125.27,65.91-109.36C2355.99,1877.7,2361.09,1943.01,2305.11,1998.99z" class="colord3d9ef svgShape"/><path fill="#eaeaea" d="M2367.04,2107.55c-16.26,50.76-144.12,79.18-93.39,118.75c50.76,39.57,5.1,97.43,5.1,97.43h-111.18    c-36.3-104.97,70.49-114.77,66.51-163.4c-4.04-49.74-12.16-78.15,71.04-161.35c55.97-55.97,50.88-121.29,41.57-158.07    c3.82,1.37,8.2,3.93,13.24,7.86c63.95,49.74-15.23,148.16-31.46,171.51C2312.23,2043.63,2383.27,2056.81,2367.04,2107.55z" class="colore1e6f4 svgShape"/><path fill="#2d8086" d="M504.41,2327.39c28.04-3.17,61.07,26.97,72.36,38.27c12.18,2.45,34.14,7.59,48.19,14.87   c-6.74-14.51-12.15-30.14-15.5-46.96c-3.06-15.36-7.47-28.96-12.76-41.08c-9.49-12.09-16.53-22.91-21.67-36.61   c-22.45-28.76-49.48-43.51-66.94-50.56c-18.99,7.98-34.09,11.96-58.51,9.89c-27.49-2.32-28.62-58.45,2.33-58.44   c28.33,0.01,57.95,37.93,62.76,44.36c15.52,6.79,36.46,18.84,55.67,39.35c-0.66-2.75-1.3-5.54-1.86-8.57   c-5.61-30.37,54.67-48.14,63.79-14.72c7.61,27.87-18.5,66.25-27.38,78.23c4.44,11.11,8.17,23.33,10.87,36.9   c10.11,50.77,39.17,90.83,68.56,119.81c-0.19-9.46,3.03-20.97,5.99-30.09c-8-23.67-11.62-41.21-6.84-69.72   c5.11-30.46,67.83-26.57,64.98,7.96c-2.35,28.53-39.27,55.4-52.06,63.9c-3.58,11.11-7.88,26.67-4.51,34.56   c0.09,0.22,0.04,0.44,0.08,0.66c34.42,31.76,67.05,48.19,67.67,48.5c1.6,0.78,2.25,2.71,1.47,4.31c-0.12,0.25-0.27,0.47-0.43,0.66   c-0.93,1.1-2.53,1.47-3.87,0.8c-1.01-0.49-82.47-41.37-125.39-120.23c-0.08-0.11-0.2-0.18-0.27-0.3   c-4.85-8.3-32.96-16.49-54.48-20.94c-21.83,12.55-38.43,19.64-67.47,20.48C478.33,2393.57,469.99,2331.28,504.41,2327.39z" class="colord3d9ef svgShape"/><path fill="#2d8086" d="M548.56,1779.34c0,43.62,31.57,79.9,73.14,87.14c-41.58,7.23-73.14,43.51-73.14,87.14    c0-43.62-31.6-79.9-73.18-87.14C516.95,1859.24,548.56,1822.96,548.56,1779.34z" class="colord3d9ef svgShape"/><path fill="#f8f8f8" d="M553.66,2058.96c0,27.74,20.08,50.82,46.52,55.42c-26.44,4.6-46.52,27.67-46.52,55.42    c0-27.74-20.1-50.82-46.54-55.42C533.56,2109.77,553.66,2086.7,553.66,2058.96z" class="colorf1f2ff svgShape"/><path fill="#f8f8f8" d="M464.9,1645.55c0,23.31,16.87,42.7,39.09,46.57c-22.22,3.87-39.09,23.25-39.09,46.57    c0-23.31-16.89-42.7-39.11-46.57C448.01,1688.25,464.9,1668.87,464.9,1645.55z" class="colorf1f2ff svgShape"/><path fill="#2d8086" d="M399.42,1922.41c0,6.59,5.35,11.94,11.94,11.94c6.59,0,11.94-5.35,11.94-11.94c0-6.59-5.35-11.94-11.94-11.94    C404.77,1910.47,399.42,1915.82,399.42,1922.41z" class="colord3d9ef svgShape"/><path fill="#f8f8f8" d="M317.05,2074.59c0,12.66,10.26,22.91,22.91,22.91c12.66,0,22.91-10.26,22.91-22.91    c0-12.65-10.26-22.91-22.91-22.91C327.31,2051.67,317.05,2061.93,317.05,2074.59z" class="colorf1f2ff svgShape"/><circle cx="528.91" cy="2500.63" r="21.79" fill="#f8f8f8" class="colorf1f2ff svgShape"/><path fill="#4f3d3d" d="M1780.97,624.74v1818.63c0,106.05-77.76,192.07-173.71,192.07h-313.88c-13.77,0-27.37,0.5-40.47-3.59    c-2.75-0.83-5.59-1.25-8.59-1.25h-67.67c-3,0-5.84,0.42-8.51,1.25c-13.27,4.09-26.78,3.59-40.55,3.59H813.7    c-95.95,0-173.8-86.02-173.8-192.07V624.74c0-106.05,77.84-192.07,173.8-192.07h793.55    C1703.2,432.67,1780.97,518.69,1780.97,624.74z" class="color4f3f3d svgShape"/><radialGradient id="a" cx="186.36" cy="687.784" r="3298.106" gradientUnits="userSpaceOnUse"><stop class="stopColorf1f2ff svgShape" offset="0" stop-color="#f8f8f8"/><stop class="stopColoreff1ff svgShape" offset=".01" stop-color="#f7f7f7"/><stop class="stopColorc1d3fc svgShape" offset=".24" stop-color="#dedede"/><stop class="stopColor9ebbfa svgShape" offset=".461" stop-color="#ccc"/><stop class="stopColor84abf8 svgShape" offset=".667" stop-color="#bebebe"/><stop class="stopColor74a1f7 svgShape" offset=".852" stop-color="#74eef7"/><stop class="stopColor6f9df7 svgShape" offset="1" stop-color="#6feef7"/></radialGradient><path fill="url(#a)" d="M1713.93,599.48c-8.99-39.58-34.85-71.7-68.71-86.55c-12.99-5.73-27.17-8.84-42.04-8.84H817.8    c-63.02,0-114.18,56.5-114.18,126.2v1807.47c0,65.21,44.79,118.88,102.19,125.51c3.93,0.48,7.93,0.69,11.99,0.69h785.39    c63.02,0,114.18-56.51,114.18-126.2V630.29C1717.37,619.65,1716.18,609.36,1713.93,599.48z"/><path fill="#2d8086" d="M1780.97,624.74v522.55h-443.12l-67.92,98.62l-74.51-98.62h-106.38c-52.65,0-95.28-42.64-95.28-95.28V432.67    h613.5C1703.2,432.67,1780.97,518.69,1780.97,624.74z" class="colord3d9ef svgShape"/><rect width="68.94" height="7.6" x="1571.25" y="597.77" fill="#f8f8f8" class="colorf1f2ff svgShape"/><rect width="68.94" height="7.6" x="1571.25" y="619.93" fill="#f8f8f8" class="colorf1f2ff svgShape"/><rect width="68.94" height="7.6" x="1571.25" y="642.09" fill="#f8f8f8" class="colorf1f2ff svgShape"/><path fill="#f8f8f8" d="M1713.93,599.48c-337.85,393.88-674.58,788.1-1010.31,1182.67v-164.27     c313.87-368.32,627.74-736.64,941.6-1104.96C1679.08,527.78,1704.94,559.9,1713.93,599.48z" class="colorf1f2ff svgShape" opacity=".25"/><path fill="#f8f8f8" d="M1717.37,743.99v748.04c-304.06,356.99-607.87,714.12-911.56,1071.25c-57.4-6.63-102.19-60.3-102.19-125.51     v-506.33C1040.48,1535.27,1378.39,1139.46,1717.37,743.99z" class="colorf1f2ff svgShape" opacity=".25"/><path fill="#f8f8f8" d="M834.65,584.84c-23.56,0-42.69,19.13-42.69,42.69c0,23.56,19.13,42.69,42.69,42.69    c23.56,0,42.69-19.13,42.69-42.69C877.34,603.97,858.21,584.84,834.65,584.84z M853.92,642.24c0,3.66-2.97,6.63-6.63,6.63h-6.63    V626.9h-12.02v21.97h-6.63c-3.66,0-6.63-2.97-6.63-6.63v-22.1l15.2-17.06c2.14-2.42,6.01-2.42,8.15,0l15.2,17.06V642.24z" class="colorf1f2ff svgShape"/><path fill="#f8f8f8" d="M2409.37,236.69H1152.63c-52.58,0-95.21,42.63-95.21,95.21v663.73c0,52.58,42.63,95.21,95.21,95.21h1256.74    c52.58,0,95.21-42.63,95.21-95.21V331.9C2504.58,279.32,2461.95,236.69,2409.37,236.69z" class="colorf1f2ff svgShape"/><polygon fill="#f8f8f8" points="1444.5 1028.35 1333.55 1189.47 1215.44 1033.09" class="colorf1f2ff svgShape"/><path fill="#f8f8f8" d="M1012.43,1472.01H834.71c-1.12,0-2.02-0.9-2.02-2.02v-217.25c0-1.12,0.9-2.02,2.02-2.02h177.72     c1.12,0,2.02,0.9,2.02,2.02v217.25C1014.45,1471.1,1013.55,1472.01,1012.43,1472.01z" class="colorf1f2ff svgShape"/><path fill="#eaeaea" d="M832.69,1349.02v107.23c0,8.71,7.06,15.77,15.77,15.77h150.23c8.71,0,15.77-7.06,15.77-15.77v-107.23H832.69     z" class="colore1e6f4 svgShape" opacity=".5"/><rect width="150.23" height="12.06" x="847.52" y="1436.65" fill="#2d8086" class="colord3d9ef svgShape"/><path fill="#f8f8f8" d="M1223.87,1472.01h-177.72c-1.12,0-2.02-0.9-2.02-2.02v-217.25c0-1.12,0.9-2.02,2.02-2.02h177.72     c1.12,0,2.02,0.9,2.02,2.02v217.25C1225.89,1471.1,1224.99,1472.01,1223.87,1472.01z" class="colorf1f2ff svgShape"/><path fill="#eaeaea" d="M1044.13,1349.02v107.23c0,8.71,7.06,15.77,15.77,15.77h150.23c8.71,0,15.77-7.06,15.77-15.77v-107.23     H1044.13z" class="colore1e6f4 svgShape" opacity=".5"/><rect width="150.23" height="12.06" x="1058.96" y="1436.65" fill="#2d8086" class="colord3d9ef svgShape"/><path fill="#f8f8f8" d="M1435.31,1472.01h-177.72c-1.12,0-2.02-0.9-2.02-2.02v-217.25c0-1.12,0.9-2.02,2.02-2.02h177.72     c1.12,0,2.02,0.9,2.02,2.02v217.25C1437.33,1471.1,1436.43,1472.01,1435.31,1472.01z" class="colorf1f2ff svgShape"/><path fill="#eaeaea" d="M1255.57,1349.02v107.23c0,8.71,7.06,15.77,15.76,15.77h150.23c8.71,0,15.77-7.06,15.77-15.77v-107.23     H1255.57z" class="colore1e6f4 svgShape" opacity=".5"/><rect width="150.23" height="12.06" x="1270.4" y="1436.65" fill="#2d8086" class="colord3d9ef svgShape"/><g fill="#0d0c0c" class="color000000 svgShape"><path fill="#f8f8f8" d="M1646.75,1472.01h-177.72c-1.12,0-2.02-0.9-2.02-2.02v-217.25c0-1.12,0.9-2.02,2.02-2.02h177.72     c1.12,0,2.02,0.9,2.02,2.02v217.25C1648.77,1471.1,1647.87,1472.01,1646.75,1472.01z" class="colorf1f2ff svgShape"/><path fill="#eaeaea" d="M1467.01,1349.02v107.23c0,8.71,7.06,15.77,15.77,15.77h150.23c8.71,0,15.77-7.06,15.77-15.77v-107.23     H1467.01z" class="colore1e6f4 svgShape" opacity=".5"/><rect width="150.23" height="12.06" x="1481.84" y="1436.65" fill="#2d8086" class="colord3d9ef svgShape"/></g><g fill="#0d0c0c" class="color000000 svgShape"><path fill="#2d8086" d="M1369.21,460.25h-34.25l-5.49,16.21h-23.4l33.21-91.78h25.88l33.21,91.78h-23.66L1369.21,460.25z     M1352.09,409.4l-11.24,33.6h22.61L1352.09,409.4z" class="colord3d9ef svgShape"/><path fill="#2d8086" d="M1480.45,476.47h-22.35v-9.94c-4.45,6.28-12.29,10.72-22.1,10.72c-16.86,0-28.24-11.63-28.24-31.12v-42.62    h22.22v39.61c0,9.94,5.62,15.43,13.99,15.43c8.63,0,14.12-5.49,14.12-15.43v-39.61h22.35V476.47z" class="colord3d9ef svgShape"/><path fill="#2d8086" d="M1500.05,422.08h-8.89v-18.56h8.89v-17.78h22.35v17.78h14.64v18.56h-14.64v29.28c0,4.31,1.83,6.14,6.8,6.14    h7.97v18.96h-11.37c-15.16,0-25.75-6.41-25.75-25.36V422.08z" class="colord3d9ef svgShape"/><path fill="#2d8086" d="M1549.58,379.72h22.36v33.6c4.44-6.28,12.42-10.59,22.48-10.59c16.6,0,27.72,11.5,27.72,31.11v42.62h-22.23    v-39.61c0-9.93-5.49-15.43-13.99-15.43s-13.98,5.49-13.98,15.43v39.61h-22.36V379.72z" class="colord3d9ef svgShape"/><path fill="#2d8086" d="M1670.1,477.51c-21.44,0-36.86-14.38-36.86-37.52s15.16-37.52,36.86-37.52c21.31,0,36.35,14.12,36.35,36.34    c0,2.09-0.13,4.31-0.39,6.54h-50.6c0.79,9.54,6.67,13.99,13.86,13.99c6.28,0,9.81-3.14,11.64-7.06h23.79    C1701.21,466.53,1688.27,477.51,1670.1,477.51z M1655.58,432.93h27.98c0-7.97-6.28-12.55-13.73-12.55    C1662.52,420.38,1656.89,424.83,1655.58,432.93z" class="colord3d9ef svgShape"/><path fill="#2d8086" d="M1768.53,436.85c0-9.93-5.49-15.43-13.99-15.43s-13.98,5.49-13.98,15.43v39.61h-22.36v-72.95h22.36v9.68    c4.44-6.14,12.28-10.46,22.09-10.46c16.86,0,28.11,11.5,28.11,31.11v42.62h-22.23V436.85z" class="colord3d9ef svgShape"/><path fill="#2d8086" d="M1809.82,422.08h-8.89v-18.56h8.89v-17.78h22.35v17.78h14.64v18.56h-14.64v29.28c0,4.31,1.83,6.14,6.8,6.14    h7.98v18.96h-11.37c-15.16,0-25.75-6.41-25.75-25.36V422.08z" class="colord3d9ef svgShape"/><path fill="#2d8086" d="M1857.26,383.91c0-6.8,5.36-12.16,13.33-12.16c7.85,0,13.21,5.36,13.21,12.16c0,6.67-5.36,12.03-13.21,12.03    C1862.62,395.93,1857.26,390.57,1857.26,383.91z M1859.36,403.52h22.36v72.95h-22.36V403.52z" class="colord3d9ef svgShape"/><path fill="#2d8086" d="M1930.07,402.47c18.3,0,31.25,10.07,35.04,27.46h-23.79c-1.83-5.1-5.49-8.37-11.64-8.37    c-7.98,0-13.46,6.28-13.46,18.43c0,12.16,5.49,18.43,13.46,18.43c6.14,0,9.68-3.01,11.64-8.37h23.79    c-3.79,16.86-16.73,27.45-35.04,27.45c-21.44,0-36.6-14.38-36.6-37.52C1893.47,416.98,1908.63,402.47,1930.07,402.47z" class="colord3d9ef svgShape"/><path fill="#2d8086" d="M2004.71,402.47c10.85,0,18.56,4.97,22.49,11.37v-10.33h22.36v72.95h-22.36v-10.33    c-4.05,6.41-11.77,11.37-22.62,11.37c-17.78,0-32.03-14.64-32.03-37.65C1972.55,416.85,1986.8,402.47,2004.71,402.47z     M2011.24,421.95c-8.37,0-15.95,6.28-15.95,17.91c0,11.63,7.58,18.17,15.95,18.17c8.5,0,15.95-6.41,15.95-18.04    S2019.74,421.95,2011.24,421.95z" class="colord3d9ef svgShape"/><path fill="#2d8086" d="M2069.27,422.08h-8.89v-18.56h8.89v-17.78h22.35v17.78h14.64v18.56h-14.64v29.28c0,4.31,1.83,6.14,6.8,6.14    h7.98v18.96h-11.37c-15.16,0-25.75-6.41-25.75-25.36V422.08z" class="colord3d9ef svgShape"/><path fill="#2d8086" d="M2116.71,383.91c0-6.8,5.36-12.16,13.33-12.16c7.85,0,13.21,5.36,13.21,12.16c0,6.67-5.36,12.03-13.21,12.03    C2122.07,395.93,2116.71,390.57,2116.71,383.91z M2118.81,403.52h22.36v72.95h-22.36V403.52z" class="colord3d9ef svgShape"/><path fill="#2d8086" d="M2190.57,477.51c-21.44,0-37.65-14.38-37.65-37.52s16.6-37.52,37.91-37.52c21.44,0,37.91,14.38,37.91,37.52    S2212.01,477.51,2190.57,477.51z M2190.57,458.16c7.98,0,15.42-5.88,15.42-18.17c0-12.42-7.32-18.17-15.16-18.17    c-8.11,0-15.16,5.75-15.16,18.17C2175.67,452.28,2182.46,458.16,2190.57,458.16z" class="colord3d9ef svgShape"/><path fill="#2d8086" d="M2290.96,436.85c0-9.93-5.49-15.43-13.99-15.43s-13.98,5.49-13.98,15.43v39.61h-22.36v-72.95h22.36v9.68    c4.44-6.14,12.28-10.46,22.09-10.46c16.86,0,28.11,11.5,28.11,31.11v42.62h-22.23V436.85z" class="colord3d9ef svgShape"/></g><g fill="#0d0c0c" class="color000000 svgShape"><path fill="#f8f8f8" d="M1560.13,1804.54H870.74c-2.57,0-4.66-2.08-4.66-4.66v-146.34c0-2.57,2.08-4.66,4.66-4.66h689.39    c2.57,0,4.66,2.08,4.66,4.66v146.34C1564.79,1802.45,1562.7,1804.54,1560.13,1804.54z" class="colorf1f2ff svgShape" opacity=".25"/><path fill="#f8f8f8" d="M1024.55,1761.24c-18.43,0-33.43-13.8-33.43-33.33c0-19.54,15-33.24,33.43-33.24     c18.52,0,33.24,13.7,33.24,33.24C1057.79,1747.45,1042.98,1761.24,1024.55,1761.24z M1024.55,1746.8     c10.37,0,17.13-7.5,17.13-18.89c0-11.57-6.76-18.89-17.13-18.89c-10.55,0-17.22,7.32-17.22,18.89     C1007.33,1739.3,1014,1746.8,1024.55,1746.8z" class="colorf1f2ff svgShape"/><path fill="#f8f8f8" d="M1063.06,1695.6h50.27v12.69h-17.22v52.31h-15.83v-52.31h-17.22V1695.6z" class="colorf1f2ff svgShape"/><path fill="#f8f8f8" d="M1146.93,1737.26h-9.81v23.33h-15.83v-65h25.65c15.93,0,23.89,8.98,23.89,20.93     C1170.82,1727.27,1163.51,1737.26,1146.93,1737.26z M1145.73,1724.67c6.3,0,8.98-3.15,8.98-8.15c0-5-2.69-8.15-8.98-8.15h-8.61     v16.3H1145.73z" class="colorf1f2ff svgShape"/><path fill="#f8f8f8" d="M1228.68,1694.86c15.46,0,27.13,8.7,30.83,22.78h-17.41c-2.69-5.55-7.59-8.34-13.61-8.34     c-9.72,0-16.39,7.22-16.39,18.7c0,11.48,6.67,18.71,16.39,18.71c6.02,0,10.93-2.78,13.61-8.34h17.41     c-3.7,14.07-15.37,22.69-30.83,22.69c-19.17,0-32.69-13.61-32.69-33.06C1195.99,1708.56,1209.51,1694.86,1228.68,1694.86z" class="colorf1f2ff svgShape"/><path fill="#f8f8f8" d="M1292.73,1761.34c-15.18,0-26.67-10.19-26.67-26.57c0-16.39,11.76-26.57,26.85-26.57     c15.19,0,26.85,10.18,26.85,26.57C1319.77,1751.15,1307.92,1761.34,1292.73,1761.34z M1292.73,1747.64     c5.65,0,10.93-4.17,10.93-12.87c0-8.8-5.18-12.87-10.74-12.87c-5.74,0-10.74,4.07-10.74,12.87     C1282.18,1743.47,1286.99,1747.64,1292.73,1747.64z" class="colorf1f2ff svgShape"/><path fill="#f8f8f8" d="M1347.81,1708.19c6.85,0,12.78,3.15,15.93,7.87v-23.98h15.83v68.51h-15.83v-7.41     c-2.87,4.72-8.33,8.15-15.93,8.15c-12.68,0-22.78-10.37-22.78-26.67C1325.04,1718.37,1335.13,1708.19,1347.81,1708.19z      M1352.44,1721.99c-5.93,0-11.3,4.45-11.3,12.68c0,8.24,5.37,12.87,11.3,12.87c6.02,0,11.29-4.54,11.29-12.78     C1363.74,1726.52,1358.46,1721.99,1352.44,1721.99z" class="colorf1f2ff svgShape"/><path fill="#f8f8f8" d="M1414,1761.34c-15.19,0-26.11-10.19-26.11-26.57c0-16.39,10.74-26.57,26.11-26.57     c15.09,0,25.74,10,25.74,25.74c0,1.48-0.09,3.05-0.28,4.63h-35.83c0.56,6.76,4.72,9.91,9.82,9.91c4.44,0,6.94-2.22,8.24-5h16.85     C1436.04,1753.56,1426.87,1761.34,1414,1761.34z M1403.73,1729.77h19.81c0-5.65-4.45-8.89-9.72-8.89     C1408.63,1720.87,1404.65,1724.02,1403.73,1729.77z" class="colorf1f2ff svgShape"/></g><g fill="#0d0c0c" class="color000000 svgShape"><path fill="#2d8086" d="M1273.31,664.01c0-34.21,20.73-52.76,64.48-52.76c41.45,0,62.94,18.55,62.94,51.02v5.22h-39.92v-7.25     c0-14.5-8.44-20-21.87-20c-14.97,0-23.41,5.51-23.41,24.93v37.11c7.29-11.6,20.34-17.98,39.15-17.98     c31.09,0,46.82,16.52,46.82,46.38v37.11c0,32.47-22.64,51.02-64.09,51.02s-64.09-18.55-64.09-51.02V664.01z M1315.53,733.3v36.53     c0,14.5,8.44,19.71,21.87,19.71c13.44,0,21.88-5.22,21.88-19.71V733.3c0-14.5-8.44-20-21.88-20     C1323.98,713.29,1315.53,718.8,1315.53,733.3z" class="colord3d9ef svgShape"/><path fill="#2d8086" d="M1573.98,662.27c0-32.47,22.64-51.02,64.09-51.02s64.09,18.55,64.09,51.02V767.8     c0,32.47-22.65,51.02-64.09,51.02s-64.09-18.55-64.09-51.02V662.27z M1616.2,769.83c0,14.5,8.44,20,21.88,20     c13.43,0,21.87-5.51,21.87-20V660.24c0-14.5-8.44-20-21.87-20c-13.44,0-21.88,5.51-21.88,20V769.83z" class="colord3d9ef svgShape"/><path fill="#2d8086" d="M1940.69,640.24c-13.44,0-21.88,5.51-21.88,20v21.74h-39.91v-19.71c0-32.47,21.49-51.02,62.94-51.02     s62.94,18.55,62.94,51.02c0,63.78-84.05,87.55-84.05,120.89c0,1.45,0,2.9,0.39,4.35h79.83v28.99H1878.9v-24.93     c0-59.72,83.66-69.58,83.66-128.14C1962.57,645.17,1954.12,640.24,1940.69,640.24z" class="colord3d9ef svgShape"/><path fill="#2d8086" d="M2304.3,766.06c0,34.21-20.73,52.76-64.48,52.76c-41.45,0-62.94-18.55-62.94-51.02v-5.22h39.91v7.25     c0,14.5,8.45,20,21.88,20c14.97,0,23.41-5.51,23.41-24.93v-37.11c-7.29,11.6-20.34,17.98-39.15,17.98     c-31.09,0-46.82-16.52-46.82-46.38v-37.11c0-32.47,22.64-51.02,64.09-51.02c41.45,0,64.09,18.55,64.09,51.02V766.06z      M2262.07,696.77v-36.53c0-14.5-8.44-19.71-21.87-19.71c-13.44,0-21.88,5.22-21.88,19.71v36.53c0,14.5,8.44,20,21.88,20     C2253.63,716.77,2262.07,711.27,2262.07,696.77z" class="colord3d9ef svgShape"/><rect width="164.69" height="10.61" x="1258.51" y="882.67" fill="#2d8086" class="colord3d9ef svgShape"/><rect width="164.69" height="10.61" x="1555.73" y="882.67" fill="#2d8086" class="colord3d9ef svgShape"/><rect width="164.69" height="10.61" x="1852.95" y="882.67" fill="#2d8086" class="colord3d9ef svgShape"/><rect width="164.69" height="10.61" x="2150.17" y="882.67" fill="#2d8086" class="colord3d9ef svgShape"/></g><g fill="#0d0c0c" class="color000000 svgShape"><path fill="#2d8086" d="M1267.38,287.07c0,9.84-0.45,20.79-1.34,32.19c-0.45,9.17-1.34,19-2.68,29.06      c-1.34,10.73-2.91,21.46-5.14,32.64c-20.79,107.75-75.11,177.49-157.15,202.31c-0.89,0.22-1.79,0.45-3.13,0.89l-2.68,0.67      l-2.68-0.67c-1.34-0.45-2.24-0.67-2.91-0.89c-82.04-24.59-136.36-94.56-157.15-202.31c-15.42-79.81-7.15-151.56-6.93-154.47      l1.34-9.84l9.84,0.22h4.02c71.76,0,128.99-48.29,144.86-63.04l0.45-0.45c0,0,0.67-0.45,1.57-1.34l7.6-7.82l7.82,7.6      c0.89,1.12,1.57,1.79,1.79,1.79c16.09,14.98,73.32,63.26,144.86,63.26h4.25l9.84-0.22l1.12,9.84      C1265.14,228.06,1268.05,251.98,1267.38,287.07z" class="color6f9df7 svgShape"/><path fill="#d6d6d6" d="M1112.05,567.88c-4.67,1.81-9.56,3.51-14.56,4.99c0,0-0.43,0.21-2.13,0.64c-1.48-0.43-2.23-0.64-2.23-0.64      c-190.91-56.94-156.59-345.16-156.59-345.16c77.87,2.01,140.13-50.57,156.59-65.98c0,0,0.85-0.74,2.23-2.02      c0,0,0,0.11,0.11,0.21c1.17,0.95,2.02,1.8,2.02,1.8c16.57,15.4,78.83,67.99,156.7,65.98      C1254.2,227.71,1286.71,501.06,1112.05,567.88z" class="coloradbcff svgShape"/><path fill="#f8f8f8" d="M1112.05,567.88c112.61-88.18,114.63-284.93,114.63-284.93s-4.57,7.97-59.17-30.81     c-52.59-37.18-70.75-88.39-72.03-92.21c1.17,0.95,2.02,1.8,2.02,1.8c16.57,15.4,78.83,67.99,156.7,65.98     C1254.2,227.71,1286.71,501.06,1112.05,567.88z" class="colorf1f2ff svgShape" opacity=".2"/><path fill="#2d8086" d="M1267.38,287.07c0,9.84-0.45,20.79-1.34,32.19l-154.25,185.54l-108.64-111.77l-12.01-33.09l120.66,44.04    L1267.38,287.07z" class="colord3d9ef svgShape" opacity=".23"/><polygon fill="#2d8086" points="991.14 359.94 1045.6 309.36 1099.8 370.83 1308.11 256.43 1099.8 471.57" class="color6f9df7 svgShape"/></g><path fill="#2d8086" d="M2418.5,2271.95c-20.42,0.6-40.99,25.57-47.93,34.82c-8.48,3.01-23.69,8.93-33.01,15.59   c3.34-11.09,5.62-22.84,6.3-35.23c0.62-11.32,2.39-21.51,4.94-30.74c5.56-9.63,9.5-18.11,11.78-28.45   c13.14-22.91,31-36.24,42.79-43.08c14.42,3.77,25.65,5.08,42.93,1.1c19.46-4.47,14.52-44.81-7.65-41.63   c-20.3,2.91-37.64,33.11-40.43,38.2c-10.42,6.45-24.2,17.23-35.86,33.89c0.19-2.04,0.37-4.1,0.46-6.33   c0.91-22.33-44.1-28.9-47.21-4.02c-2.6,20.75,20.04,45.58,27.63,53.25c-2.04,8.41-3.47,17.55-4.02,27.55   c-2.05,37.41-18.77,69.09-36.86,92.86c-0.83-6.8-4.32-14.71-7.37-20.95c3.31-17.78,4.11-30.72-2.23-50.65   c-6.78-21.3-51.32-12.1-45.75,12.35c4.6,20.2,33.81,35.67,43.84,40.46c3.7,7.59,8.38,18.3,6.77,24.3   c-0.05,0.16,0.02,0.32,0.01,0.48c-21.41,26.28-43.11,41.39-43.53,41.67c-1.06,0.72-1.34,2.17-0.61,3.24   c0.11,0.16,0.24,0.31,0.38,0.43c0.78,0.69,1.96,0.79,2.86,0.18c0.67-0.46,54.86-38.08,77.54-98.97c0.05-0.09,0.12-0.15,0.16-0.24   c2.63-6.44,21.93-15.19,36.89-20.58c16.93,6.76,29.55,10.14,50.44,7.77C2443.96,2316.71,2443.56,2271.22,2418.5,2271.95z" class="colord3d9ef svgShape"/><g fill="#0d0c0c" class="color000000 svgShape"><path fill="#2d8086" d="M1790.16,2550.27H1386.6c-1.12,0-2.02-0.9-2.02-2.02v-492.21c0-1.12,0.9-2.02,2.02-2.02h403.56      c1.12,0,2.02,0.9,2.02,2.02v492.21C1792.18,2549.36,1791.28,2550.27,1790.16,2550.27z" class="colord3d9ef svgShape"/><path fill="#f8f8f8" d="M1805.43,2577.95h-403.56c-1.12,0-2.02-0.9-2.02-2.02v-492.21c0-1.12,0.9-2.02,2.02-2.02h403.56      c1.12,0,2.02,0.9,2.02,2.02v492.21C1807.45,2577.05,1806.55,2577.95,1805.43,2577.95z" class="colorf1f2ff svgShape"/><path fill="#2d8086" d="M1719.12,2215.23c-25.03-1.7-52.91-6.77-73.04-22.85c-22.88-18.27-27.69-45.42-29.01-73.22      c-0.59-12.51-0.46-24.98-0.17-37.46h-186.52c-16.86,0-30.53,13.67-30.53,30.53v435.18c0,16.86,13.67,30.54,30.53,30.54h346.53      c16.86,0,30.54-13.67,30.54-30.54V2211.3C1778.27,2214.82,1748.51,2217.22,1719.12,2215.23z" class="colord3d9ef svgShape"/><rect width="336.9" height="27.03" x="1433.12" y="2498.67" fill="#2d8086" class="colord3d9ef svgShape"/><path fill="#2d8086" d="M1487.97,2239.55c0-48.07,29.13-74.14,90.62-74.14c58.24,0,88.45,26.07,88.45,71.69v7.34h-56.1v-10.19      c0-20.37-11.86-28.11-30.74-28.11c-21.04,0-32.89,7.74-32.89,35.03v52.15c10.25-16.3,28.58-25.26,55.01-25.26      c43.69,0,65.8,23.22,65.8,65.18v52.15c0,45.63-31.83,71.71-90.07,71.71c-58.24,0-90.07-26.07-90.07-71.71V2239.55z       M1547.3,2336.91v51.32c0,20.37,11.86,27.71,30.74,27.71c18.88,0,30.74-7.34,30.74-27.71v-51.32      c0-20.37-11.86-28.11-30.74-28.11C1559.16,2308.8,1547.3,2316.54,1547.3,2336.91z" class="colord3d9ef svgShape"/><path fill="#eaeaea" d="M1399.85,2302.14v240.45c0,19.52,15.83,35.35,35.35,35.35h336.9c19.52,0,35.35-15.83,35.35-35.35v-240.45     H1399.85z" class="colore1e6f4 svgShape" opacity=".5"/><path fill="#2d8086" d="M1600.67,2194.74c0,0,209.77-376.47,116.7-359.76c-457.86,82.23-404.71,359.76-404.71,359.76h-47.08      c-7.81,0-14.14,6.33-14.14,14.14V2623c0,7.81,6.33,14.14,14.14,14.14h335.09c7.81,0,14.14-6.33,14.14-14.14v-414.12      C1614.81,2201.07,1608.48,2194.74,1600.67,2194.74z" class="colord3d9ef svgShape"/><path fill="#2d8086" d="M1626.95,2233.18h-335.09c-7.81,0-14.14,6.33-14.14,14.14v414.12c0,7.81,6.33,14.14,14.14,14.14h335.09      c7.81,0,14.14-6.33,14.14-14.14v-414.12C1641.09,2239.52,1634.76,2233.18,1626.95,2233.18z" class="colord3d9ef svgShape"/><path fill="#f8f8f8" d="M1652.68,2700.26h-359.33c-1.12,0-2.02-0.9-2.02-2.02v-438.36c0-1.12,0.9-2.02,2.02-2.02h359.33      c1.12,0,2.02,0.9,2.02,2.02v438.36C1654.7,2699.36,1653.8,2700.26,1652.68,2700.26z" class="colorf1f2ff svgShape"/><rect width="300.34" height="24.1" x="1320.99" y="2629.58" fill="#2d8086" class="colord3d9ef svgShape"/><path fill="#2d8086" d="M1528.56,2335.39v34.86l-77.89,219.36h-52.88l77.4-217.9h-105.29v-36.33H1528.56z" class="colord3d9ef svgShape"/><path fill="#eaeaea" d="M1291.33,2454.38v214.36c0,17.41,14.11,31.52,31.52,31.52h300.34c17.41,0,31.52-14.11,31.52-31.52v-214.36     H1291.33z" class="colore1e6f4 svgShape" opacity=".5"/><g class="color000000 svgShape"><path fill="#2d8086" d="M2226.42,2543.09h-415.16c-1.12,0-2.02-0.9-2.02-2.02v-506.33c0-1.12,0.9-2.02,2.02-2.02h415.16      c1.12,0,2.02,0.9,2.02,2.02v506.33C2228.44,2542.19,2227.53,2543.09,2226.42,2543.09z" class="colord3d9ef svgShape"/><path fill="#f8f8f8" d="M2242.12,2571.56h-415.16c-1.12,0-2.02-0.9-2.02-2.02v-506.33c0-1.12,0.9-2.02,2.02-2.02h415.16      c1.12,0,2.02,0.9,2.02,2.02v506.33C2244.14,2570.66,2243.24,2571.56,2242.12,2571.56z" class="colorf1f2ff svgShape"/><path fill="#2d8086" d="M2084.01,2147.75c-14.55-0.08-37.47-4.38-51.65,0.93c-14.09,5.27-20.14,25.55-27.82,37.07      c-28.3,42.49-76.65,43.15-123.36,47.12c-18.72,1.59-37.48,2.61-56.24,3.4v303.9c0,17.34,14.06,31.4,31.4,31.4h356.39      c17.34,0,31.4-14.06,31.4-31.4v-395.1C2190.94,2149.85,2137.41,2148.04,2084.01,2147.75z" class="colord3d9ef svgShape"/><rect width="346.48" height="27.8" x="1859.16" y="2490.02" fill="#2d8086" class="colord3d9ef svgShape"/><path fill="#2d8086" d="M1945.56,2221.02c0-46.92,32.72-73.73,92.62-73.73c59.91,0,92.64,26.81,92.64,73.73v152.51      c0,46.93-32.72,73.75-92.64,73.75c-59.9,0-92.62-26.81-92.62-73.75V2221.02z M2006.56,2376.45c0,20.95,12.21,28.91,31.61,28.91      c19.42,0,31.63-7.96,31.63-28.91v-158.37c0-20.95-12.21-28.91-31.63-28.91c-19.41,0-31.61,7.96-31.61,28.91V2376.45z" class="colord3d9ef svgShape"/><path fill="#eaeaea" d="M1824.94,2287.91v247.3c0,20.08,16.28,36.36,36.36,36.36h346.48c20.08,0,36.36-16.28,36.36-36.36v-247.3     H1824.94z" class="colore1e6f4 svgShape" opacity=".5"/></g><g class="color000000 svgShape"><path fill="#2d8086" d="M2040.25,2688.64h-423.25c-1.12,0-2.02-0.9-2.02-2.02v-516.17c0-1.12,0.9-2.02,2.02-2.02h423.25      c1.12,0,2.02,0.9,2.02,2.02v516.17C2042.27,2687.73,2041.37,2688.64,2040.25,2688.64z" class="colord3d9ef svgShape"/><path fill="#f8f8f8" d="M2056.26,2717.66h-423.25c-1.12,0-2.02-0.9-2.02-2.02v-516.17c0-1.12,0.9-2.02,2.02-2.02h423.25      c1.12,0,2.02,0.9,2.02,2.02v516.17C2058.28,2716.75,2057.38,2717.66,2056.26,2717.66z" class="colorf1f2ff svgShape"/><rect width="353.17" height="28.34" x="1665.87" y="2634.54" fill="#2d8086" class="colord3d9ef svgShape"/><path fill="#2d8086" d="M1848.35,2590.96c-62.76,0-97.24-27.33-97.24-75.17v-23.48c0-28.62,11.3-50.83,38.44-62.36      c-26.02-10.68-38.44-30.75-38.44-60.22v-9.39c0-47.82,34.48-75.15,97.24-75.15c62.76,0,97.24,27.33,97.24,75.15v9.39      c0,29.47-13,49.54-38.44,60.22c27.15,11.53,38.44,33.74,38.44,62.36v23.48C1945.59,2563.63,1911.11,2590.96,1848.35,2590.96z       M1813.3,2378.71c0,23.91,14.7,31.6,35.05,31.6c19.79,0,35.05-7.69,35.05-31.6v-16.67c0-26.9-15.26-34.16-35.05-34.16      c-19.79,0-35.05,7.26-35.05,34.16V2378.71z M1848.35,2548.24c19.79,0,34.48-7.26,35.05-33.74v-27.75      c0-23.49-13-33.74-35.05-33.74c-22.05,0-35.05,10.25-35.05,33.74v27.75C1813.3,2540.98,1828.56,2548.24,1848.35,2548.24z" class="colord3d9ef svgShape"/><path fill="#eaeaea" d="M1630.99,2428.53v252.07c0,20.47,16.59,37.06,37.06,37.06h353.17c20.47,0,37.06-16.59,37.06-37.06v-252.07     H1630.99z" class="colore1e6f4 svgShape" opacity=".5"/></g><g class="color000000 svgShape"><path fill="#2d8086" d="M2377.42,2689.84h-326.2c-1.12,0-2.02-0.9-2.02-2.02V2289.8c0-1.12,0.9-2.02,2.02-2.02h326.2      c1.12,0,2.02,0.9,2.02,2.02v398.02C2379.44,2688.94,2378.54,2689.84,2377.42,2689.84z" class="colord3d9ef svgShape"/><path fill="#f8f8f8" d="M2389.79,2712.27h-326.2c-1.12,0-2.02-0.9-2.02-2.02v-398.02c0-1.12,0.9-2.02,2.02-2.02h326.2      c1.12,0,2.02,0.9,2.02,2.02v398.02C2391.81,2711.37,2390.91,2712.27,2389.79,2712.27z" class="colorf1f2ff svgShape"/><rect width="272.96" height="21.9" x="2088.53" y="2648.03" fill="#2d8086" class="colord3d9ef svgShape"/><path fill="#2d8086" d="M2124.66,2536.78l87.39-156.12h52.44v156.12h22.73v33.01h-22.73v41.91h-47.19v-41.91h-92.64V2536.78z       M2217.3,2536.78v-86.81l-48.5,86.81H2217.3z" class="colord3d9ef svgShape"/><path fill="#eaeaea" d="M2061.57,2488.81v194.82c0,15.82,12.82,28.64,28.64,28.64h272.96c15.82,0,28.64-12.82,28.64-28.64v-194.82     H2061.57z" class="colore1e6f4 svgShape" opacity=".5"/></g></g><g fill="#0d0c0c" class="color000000 svgShape"><path fill="#2d8086" d="M1366.33,1353.92c0,0-20.23,47.85,54.67,104.21c44.47,182.79,196.15,354.75,240.8,361.22       c44.65,6.46,102.12-29.1,102.12-29.1v-93.73c0,0-164.51-51.76-192.83-89.72C1542.78,1568.84,1366.33,1353.92,1366.33,1353.92z" class="colord3d9ef svgShape"/><path fill="#d7d7d7" d="M1803.53,1601.51c0,0,13.22,134.58-109.96,171.95c-53.51,16.24-230.78-193.47-250.75-313.25       c-4.19-25.11,26.07-28.93,26.07-28.93l198.63,198.57l26.26-83.65L1803.53,1601.51z" class="colorf4caba svgShape"/><path fill="#d7d7d7" d="M1388.52,1402.99c6.1,9.52,11.96,17.74,15.61,21.5c2.81,2.9,5.85,5.37,8.83,7.44        c2.57,1.77,5.08,3.25,7.39,4.46c5.98,3.18,10.54,4.51,10.54,4.51l41.73,72.63c15.35-5.26,32.48-19.6,35.27-22.21        c0,0-44.36-63.28-42.44-77.58c-0.01-0.12,0.02-0.28,0.05-0.39c0.08-0.18,0.19-0.38,0.29-0.58c1.35-3.02,1.38-8.14,0.43-13.73        c-0.7-4.1-1.92-8.43-3.47-12.36c-3.8-9.59,12.03-32.98,6.52-36.15c-5.54-3.16-18.4,7.93-19.25,16.46        c-0.86,8.51-8.48,7.64-12.83,0.74l-1.37-2.17c-8.68-13.78-35.75-56.29-43.34-53.03c-4.95,2.13,4.5,20.89,12.52,35.03        c-10.43-16.93-26.26-40.65-30.17-35.79c-3.01,3.74,10.01,29.63,17.42,44.01c-5.98-9.39-18.5-27.54-21.77-25.58        c-7.06,4.25,4.14,24.18,12.48,37.12c-5.49-7.36-12.58-15.21-16.64-13.41C1361.39,1356.14,1375.44,1382.63,1388.52,1402.99z" class="colorf4caba svgShape"/><path fill="#231f1f" d="M1426.46,1437.01c1.47,0.72,2.99,1.35,4.66,1.71c5.61,1.17,11.63,0.02,16.82-2.3        c5.24-2.34,10.2-6.06,12.59-11.42c1.01-2.21,1.38-4.55,1.72-6.94c-6.46,7.09-16.81,9.4-16.81,9.4        c-6.07,5.3-12.36,8.38-18.44,9.08C1426.74,1436.87,1426.54,1437.02,1426.46,1437.01z" class="color231f20 svgShape" opacity=".1"/><path fill="#fff" d="M1391.09,1401.82c-0.47,4.41,9.39,18.91,13.04,22.67c2.81,2.9,5.85,5.37,8.83,7.44        c2.57,1.77,5.08,3.25,7.39,4.46c2.17,0.41,4.4,0.45,6.65,0.16c6.07-0.7,12.37-3.77,18.44-9.08c0,0,10.36-2.31,16.81-9.4        c1.28-1.37,2.4-2.93,3.25-4.71c0.08-0.18,0.19-0.38,0.29-0.58c1.35-3.02,1.38-8.14,0.43-13.73c-0.7-4.1-1.92-8.43-3.47-12.36        c-3.8-9.59,12.03-32.98,6.52-36.15c-5.54-3.16-18.4,7.93-19.25,16.46c-0.86,8.51-6.62,6.85-14.1,3.59        c-6.49-2.83-16.32-0.32-27.54,7.89C1396.46,1387.17,1392.9,1397.85,1391.09,1401.82z" class="colorffffff svgShape" opacity=".2"/><path fill="#b4b4b4" d="M1396.75,1389.39c-0.08-0.06-0.18-0.08-0.24-0.17l-13.27-21.38l14.33,20.46c0.41-0.54,0.8-1.1,1.23-1.63        c1.99-2.41,4.15-4.71,6.57-6.77c-0.01-0.02-0.03-0.02-0.04-0.03l-11.94-22.15l13.05,21.3c0.2-0.16,0.39-0.33,0.6-0.49        c3.17-2.24,6.4-4.32,9.82-6.1c0.65-0.33,1.3-0.66,1.95-0.97c-0.01-0.02-0.05-0.02-0.06-0.05l-11.94-22.15l13.14,21.46        c0.01,0.01,0.01,0.02,0.02,0.03c0.03,0.05,0,0.1,0.02,0.15c2.44-1.13,4.94-2.12,7.53-2.77c-3.53,1.47-6.89,3.29-10.16,5.23        c-3.25,1.96-6.49,4-9.5,6.28c-3.02,2.2-5.67,4.94-8.22,7.72c-2.55,2.8-4.96,5.73-7.32,8.72        C1393.62,1393.75,1395.14,1391.55,1396.75,1389.39z" class="colore8ad80 svgShape"/><path fill="#2d8086" d="M1821.06,1324.02c0,0-9.38,20.63,13.71,84.28c23.94,65.97-51.72,280.34-51.72,280.34        s-127.13-75.23-116.46-120.31C1683.81,1495.57,1696.83,1321.65,1821.06,1324.02z" class="color6f9df7 svgShape"/><path fill="#342020" d="M1666.47,1572.61c10.43,7.83,24.98,10.28,36.21,2.41c10.65-7.47,16.56-21.3,18.98-33.68        c2.96-15.17-1.67-29.2-5.12-43.89c-3.9-16.63-2.55-33.12,1.69-49.55c3.62-14.04,9.9-27.65,20.81-37.51        c10.93-9.88,26.33-15.43,41.06-14.24c12.79,1.03,24.44,7.52,33.9,15.89c10.03,8.86,18.3,19.51,25.4,30.97        c-0.09,86.17-56.35,245.64-56.35,245.64s-119.96-71-117.02-116.38C1666.19,1572.37,1666.32,1572.5,1666.47,1572.61z" class="color202234 svgShape" opacity=".15"/><path fill="#d7d7d7" d="M1437.12,2704c0,0-12.62-41.75-6.83-44.99c5.79-3.24,19.75-5.17,23.14-2.52        c3.39,2.65,4.79,47.74-0.32,53.89C1448.01,2716.54,1440.88,2715.01,1437.12,2704z" class="colorf4caba svgShape"/><path fill="#fff" d="M1448.66,2693.98c-4.22-5.69-8.11-11.61-11.9-17.59c-1.83-2.89-3.63-5.8-5.65-8.57        c-0.78-1.07-1.56-2.14-2.33-3.22c0.12,12.18,8.34,39.4,8.34,39.4c3.76,11,10.88,12.54,16,6.39c0.92-1.11,1.63-3.51,2.16-6.69        C1453.15,2700.41,1451,2697.14,1448.66,2693.98z" class="colorffffff svgShape" opacity=".2"/><path fill="#dedede" d="M1437.5,2677.67c-2.6-0.36-5.16-1.01-7.76-1.43c0.67,19.1,7.08,28.18,7.08,28.18        c3.93,11.51,11.38,13.11,16.72,6.68c3.12-3.76,3.92-21.42,3.33-36.01C1451.52,2678.57,1443.14,2678.46,1437.5,2677.67z" class="colorced9ef svgShape"/><path fill="#432929" d="M1362.23,2735.21l-4.35,0.93c0,0-1.33,5.48,0.73,7.86c2.06,2.37,20.65,7.49,56.28,4.86       c35.63-2.63,51.73-9.37,50.67-15.68C1464.48,2726.89,1378.23,2749.33,1362.23,2735.21z" class="color432d29 svgShape"/><path fill="#4f3d3d" d="M1465.54,2733.19c-46.51,17.79-117.95,9.33-106.61,1.19c2.5-1.79,6.92-3.43,12.3-5.05       c19.13-5.73,50.46-11.08,50.86-20.86c0.51-12.54,7.03-14.66,8.56-14.28c0.39,0.1,1.46,0.47,2.94,0.89       c4.32,1.23,12.12,2.87,16.72-0.61c6.18-4.67,7.1-5.21,10.03-2.48C1468.96,2700.03,1469.06,2707.15,1465.54,2733.19z" class="color4f3f3d svgShape"/><path fill="#d7d7d7" d="M1885.1,2715.82c0,0-21.16-40.96-15.77-45.44c5.39-4.48,19.53-9.18,23.57-7.08       c4.04,2.11,14.18,48.7,10.06,56.08C1898.83,2726.75,1891.12,2726.53,1885.1,2715.82z" class="colorf4caba svgShape"/><path fill="#fff" d="M1895.16,2703.18c-5.48-5.1-10.66-10.51-15.75-15.99c-2.47-2.66-4.89-5.32-7.53-7.82       c-1.02-0.96-2.03-1.92-3.04-2.89c2.47,12.64,16.26,39.34,16.26,39.34c6.02,10.71,13.73,10.94,17.85,3.56       c0.75-1.34,1.02-3.96,0.95-7.37C1901.07,2708.99,1898.2,2706.01,1895.16,2703.18z" class="colorffffff svgShape" opacity=".2"/><path fill="#dedede" d="M1880.42,2688.37c-2.78,0.12-5.56-0.05-8.34,0c4.38,19.73,16.24,42.8,16.24,42.8       c6.3,11.2,19.58,7.04,23.89-0.68c2.52-4.51-8.73-33.5-12.15-48.55C1895.16,2686.61,1886.44,2688.11,1880.42,2688.37z" class="colorced9ef svgShape"/><path fill="#432929" d="M1851.92,2769.82c0,0,0.94,6.51,7.23,8.23c15.61,4.26,60.99-13,62.42-17.79       c1.42-4.8-0.51-10.12-0.51-10.12L1851.92,2769.82z" class="color432d29 svgShape"/><path fill="#4f3d3d" d="M1879.98,2712.7c0,0,27.12-12.71,30.53-4.85c3.41,7.86,13.38,41.57,10.29,47.76       c-3.09,6.19-33.82,7.97-33.82,7.97s-25.21-8.69-13.43-13.88C1894.89,2740.3,1869.21,2717.31,1879.98,2712.7z" class="color4f3f3d svgShape"/><path fill="#4f3d3d" d="M1853.91,2773.57c9.04,4.69,35.98,0.53,40.14-7.08c4.15-7.61-7.02-30.08-30.16-19.67       C1854.34,2751.12,1847.57,2770.28,1853.91,2773.57z" class="color4f3f3d svgShape"/><path fill="#fff" d="M1868.61,2747.16c-3.28,0.89-5.78,2.24-7.63,3.86c1.02,1.02,2.09,1.98,3.21,2.88        c2.15-1.99,5.22-3.84,9.36-4.2c9.54-0.82,9.86-0.54,9.86-0.54S1876.33,2745.06,1868.61,2747.16z" class="colorffffff svgShape" opacity=".2"/><path fill="#fff" d="M1858.73,2755.14c-0.41,1.17,0.32,2.43,1.55,2.61c0.78,0.11,1.54-0.25,1.94-0.93        c0.33-0.56,0.81-1.29,1.43-2.09c-1.11-0.9-2.18-1.85-3.2-2.86C1859.71,2752.91,1859.13,2754,1858.73,2755.14z" class="colorffffff svgShape" opacity=".2"/><path fill="#432929" d="M1797.03,1838.88c-9.86,4.01-371.99,66.65-442.69,276.88c-70.7,210.23,70.42,556.34,70.42,556.34      l35.62-3.7l126.97-521.13l509.18-191.23L1797.03,1838.88z" class="color432d29 svgShape"/><path fill="#f9f9f9" d="M1343.99,2373.64c-13.05-88.56-15.16-182.04,10.35-257.88c27.66-82.27,99.96-141.93,178.3-184.32      c4.87,5.86,2.19,16.36-0.56,22.44c-9.77,21.56-29.33,38.7-46.69,54.16c-26.56,23.65-49.31,53.43-68.82,83.03      c-22.12,33.56-40.32,70.32-50.61,109.3c-4.85,18.38-7.88,37.32-8.52,56.32c-0.61,18.18,1.34,36.38,1.28,54.57      C1358.66,2327.83,1355.69,2357.11,1343.99,2373.64z" class="colorf2faff svgShape" opacity=".2"/><path fill="#342020" d="M1435.04,2665.23c10.83-15.76,15.46-36.83,17.84-55.44c3.02-23.64,3.1-47.78,4.58-71.56      c1.61-25.82-0.24-51.67,2.55-77.44c2.7-24.96,9.01-49.36,14.58-73.79c5.31-23.31,10.48-47.18,10.85-71.18      c0.34-21.85-3.52-43.46-7.33-64.89c-3.81-21.43-7.48-43.03-6.41-64.89c1.09-22.01,7.78-42.91,17.85-62.4      c18.59-35.98,47.04-65.99,77.96-91.7c32-26.61,67.31-49.77,104.47-68.46c21.89-11.01,44.34-20.84,67.05-30.02      c21.62-8.74,43.77-16.27,64.57-26.89c22.73-11.59,43.96-25.69,65.34-39.57l227.59,89.02l-509.18,191.23l-126.97,521.13      l-31.25,3.25C1431.28,2669.89,1433.28,2667.8,1435.04,2665.23z" class="color202234 svgShape" opacity=".3"/><path fill="#4f3d3d" d="M1798.69,2189.49l109.32,487.81l-40.18,9.23c0,0-348.51-410.08-324.29-525.26      c18.71-88.96,153.68-275.49,247.58-283.24c93.9-7.75,367.21,21.78,367.21,21.78s41.17,159.98-85.49,208.63      C1946.19,2157.09,1798.69,2189.49,1798.69,2189.49z" class="color4f3f3d svgShape"/><path fill="#f9f9f9" d="M1543.55,2161.28c10.24-48.72,55.38-126.66,109.52-188.51c1.13,0.24,2.27,0.55,3.44,1.02      c6.36,2.6,5.73,10.18,4.52,15.81c-4.33,20.14-17.12,38.86-28.39,55.73c-13.89,20.79-30.59,39.34-44.99,59.72      c-20.02,28.34-27.58,60.57-19.59,94.67c8.47,36.12,31.02,67.75,52.74,97.11c10.11,13.67,21.42,27.97,24.88,45.03      c2.67,13.18-0.91,26.85-11.25,34.56C1577.26,2288.08,1534.52,2204.2,1543.55,2161.28z" class="colorf2faff svgShape" opacity=".2"/><path fill="#342020" d="M1889.46,2681.57c0.03-0.1,0.08-0.18,0.11-0.28c3.64-11.2,4.1-23.33,2.58-34.93      c-1.78-13.57-7.35-25.8-11.53-38.73c-10.56-32.66-17.76-65.92-33.35-96.76c-14.23-28.13-31.12-54.61-40.59-84.91      c-10.5-33.62-13.79-68.95-23.28-102.83c-3.45-12.31-8.15-23.65-16.15-33.72c-7.5-9.45-16.92-17.02-26.41-24.36      c-18.63-14.43-50.61-40.79-33.87-67.55c10.47-16.74,35.76-19.34,53.33-22.57c21.52-3.96,42.15-9.31,56.21-27.49      c6.33-8.19,10.81-17.76,17.68-25.52c8.21-9.27,20.14-15.19,31.61-19.41c26.61-9.79,55.43-11.32,83.41-13.77      c45.27-3.98,97.38-12.58,125.34-53.01c10.07-14.57,12.65-33.05,1.89-48.02c-11.48-15.96-31.17-24.61-49.48-30.18      c-32.21-9.8-66.15-13.46-99.13-19.82c-31.98-6.16-67.03-13.13-94.04-32.46c-9.96-7.12-18.31-16.69-22.56-28.24      c107.64-3.05,347.1,22.82,347.1,22.82s41.17,159.98-85.49,208.63c-126.66,48.64-274.16,81.05-274.16,81.05l109.32,487.81      L1889.46,2681.57z" class="color202234 svgShape" opacity=".3"/><path fill="#2d8086" d="M1742.28,1356.93c-25.23,37.58-22.91,480.23,48.85,521.11c71.76,40.88,281.66,54.28,361.05,82.87      c79.39,28.58,100.26-326.77-43.49-516.4C1964.94,1254.88,1773.03,1311.11,1742.28,1356.93z" class="color6f9df7 svgShape"/><path fill="#342020" d="M1770.85,1839.79c14.43,6.81,28.6,14.48,42.28,22.69c13.3,7.98,26.27,16.61,40.36,23.17      c28.82,13.4,60.67,15.28,92,16.27c33.35,1.05,67.08,0.55,99.78,8.17c13.43,3.13,26.26,8.25,39.77,11.03      c11.8,2.43,23.99,3.81,36.05,3.05c11.89-0.75,24.07-3.52,34.16-10.11c9.14-5.97,15.37-14.83,20.04-24.55      c8.86-18.43,13.05-45.09,32.75-55.58c1.9-1.01,3.76-1.73,5.47-1.9c-4.53,84.05-27.66,140.98-61.33,128.85      c-79.39-28.58-289.29-41.99-361.05-82.87c-10.52-5.99-19.54-20.67-27.2-41.39C1766.29,1837.68,1768.61,1838.74,1770.85,1839.79z      " class="color202234 svgShape" opacity=".15"/><path fill="#342020" d="M1767.28,1597.18c3.76,2.85,7.8,5.33,12.13,7.34c15.7,7.29,33.03,10.16,48.61,17.73      c15.87,7.71,29.05,18.96,42.86,29.72c29.57,23.04,58.63,46.84,89.54,68.09c44.92,30.89,97.18,60.18,153.32,60.39      c18.81,0.07,41.96-4.32,49.43-24.16c3.8-10.1,4.01-24.39-4.27-32.36c-7.92-7.64-20.9-7.89-31.2-8.5      c-23.35-1.38-46.78,1.09-70.09-1.44c-21.58-2.34-44.19-10.26-51.1-33c-5.19-17.06-5.19-35.86-7.45-53.47      c-1.19-9.25-2.69-18.45-5.08-27.47c-2.45-9.26-6.01-18.16-8.42-27.43c-4.4-16.92-6.31-34.47-5.8-51.91      c19.55,8.25,39.22,16.28,59.58,22.33c17.83,5.3,36.79,10,55.26,12.38c9.59,1.24,18.59,0.52,26.94-2.61      c1.06,2.92,2.01,5.86,3.21,8.75c8.35,20.13,20.8,37.34,31.29,56.27c11.36,20.5,20.08,42.38,26.76,64.83      c12.87,43.23,0.27,90.85-30.71,123.3c-15.67,16.41-34.56,27.73-56.69,33.03c-12.43,2.97-25.13,4.23-37.89,4.76      c-26.87-2.9-53.24-9.9-77.78-21.34c-39-18.18-73.86-44.69-99.44-79.44c-10.45-14.2-17.79-30.17-27.22-44.99      c-9.3-14.61-21.6-26.04-37.39-33.35c-15.28-7.08-31.3-12.83-40.69-27.86C1767.61,1624.93,1766.42,1610.89,1767.28,1597.18z" class="color202234 svgShape" opacity=".15"/><path fill="#b4b4b4" d="M1831.2,1595.81l-2.56-2.94c0,0,4.74-2.86,5.54-1.82C1834.98,1592.1,1831.2,1595.81,1831.2,1595.81z" class="colore8ad80 svgShape"/><path fill="#b4b4b4" d="M1823.2,1576.44c-0.24-0.9-4.08-3.75-4.08-3.75s4.71-3.41,7.3-2.85        C1829.01,1570.4,1823.2,1576.44,1823.2,1576.44z" class="colore8ad80 svgShape"/><path fill="#b4b4b4" d="M1811.81,1552.72c-0.4-0.52-3.08-2.54-3.08-2.54s3.24-3.5,4.72-3.23        C1814.92,1547.22,1811.81,1552.72,1811.81,1552.72z" class="colore8ad80 svgShape"/><path fill="#b4b4b4" d="M1789.29,1551.62l-3.97-2.12c0,0,2-2.87,4.55-3.03C1792.41,1546.31,1789.29,1551.62,1789.29,1551.62z" class="colore8ad80 svgShape"/><path fill="#432929" d="M1782.85,1477.66l-51.67,10.72c-6.06,1.26-9.11,7.42-6.87,13.75l44.44,125.29        c2.09,5.9,8.61,10.06,14.59,9.32l19.84-2.47c0.88-0.11,1.75-0.19,2.52-0.52c0.16-0.07,0.33-0.12,0.52-0.14l4.35-0.54        c0.19-0.02,0.38-0.02,0.57,0.01c0.93,0.13,1.79-0.01,2.68-0.12l20.48-2.55c6.34-0.79,9.86-6.4,7.81-12.54l-43.57-130.63        C1796.33,1480.61,1789.29,1476.32,1782.85,1477.66z" class="color432d29 svgShape"/><path fill="#4f3d3d" d="M1784.07,1482.15l-51.11,10.48c-3.99,0.82-6.01,4.86-4.53,9.03l44.17,124.94        c1.37,3.89,5.67,6.63,9.6,6.13l50.45-6.4c4.16-0.53,6.46-4.22,5.11-8.25l-43.41-129.65        C1792.91,1484.1,1788.29,1481.29,1784.07,1482.15z" class="color4f3f3d svgShape" opacity=".15"/><path fill="#4f3d3d" d="M1738.93,1497.76c-2.66,0.76-4.03,3.62-3.07,6.39l6.98,20.16c0.94,2.73,3.87,4.46,6.57,3.85        c2.72-0.61,4.17-3.37,3.21-6.15l-7.05-20.54C1744.6,1498.65,1741.62,1496.99,1738.93,1497.76z" class="color4f3f3d svgShape" opacity=".5"/><g class="color000000 svgShape"><path fill="#d7d7d7" d="M1738.55,1558.5c5.56-3.58,28.32,15.05,28.32,15.05s-31.5-35.39-25.06-38.9        c6.44-3.51,34.54,26.57,34.54,26.57s-33.26-39.85-29.28-46.69c3.97-6.83,39,37.45,39,37.45s-23.65-43.04-17.51-46.89        c6.14-3.86,29.86,39.69,36.7,47.59c4.44,5.13,10.81,4.87,10.44-2.23c-0.37-7.1,8.8-17.81,13.74-15.91        c4.94,1.9-5.15,23.1-0.82,30.48c4.33,7.38,7.28,17.14,5.58,21.55c-0.62,11.42,52.22,41.27,52.22,41.27        c-1.95,2.51-13.18,33.12-25.11,39.33l-52.06-53.63c0,0-13.12-1.83-24.02-10.13C1774.35,1595.1,1732.99,1562.07,1738.55,1558.5        z" class="colorf4caba svgShape"/><g class="color000000 svgShape" opacity=".2"><path fill="#fff" d="M1829.76,1535.52c1.03,1.33,0.19,4.24-0.18,5.41c0,0-2.44,0.57-2.42-0.92         C1827.18,1538.53,1828.73,1534.2,1829.76,1535.52z" class="colorffffff svgShape"/><path fill="#fff" d="M1769.01,1505.67c1.66-0.51,5.07,3.78,5.04,4.4c0,0-3.93,2.09-4.77,2.14         C1768.46,1512.26,1767.36,1506.18,1769.01,1505.67z" class="colorffffff svgShape"/><path fill="#fff" d="M1748.22,1515.64c1.46-0.94,5.91,2.27,6.04,2.88c0,0-3.23,3.07-4.02,3.35         C1749.46,1522.14,1746.77,1516.58,1748.22,1515.64z" class="colorffffff svgShape"/><path fill="#fff" d="M1742.9,1536.37c1.41-1,6,2,6.17,2.6c0,0-3.09,3.22-3.86,3.52         C1744.43,1542.8,1741.49,1537.38,1742.9,1536.37z" class="colorffffff svgShape"/><path fill="#fff" d="M1739.54,1559.42c1.1-0.94,5.13,1.2,5.31,1.68c0,0-2.31,2.9-2.93,3.22         C1741.3,1564.64,1738.45,1560.37,1739.54,1559.42z" class="colorffffff svgShape"/></g></g><path fill="#d7d7d7" d="M2141.95,1506.07l-110.6,61.17l16.65,113.48l-213.82-89.65l-24.92,22.47c0,0,229.34,281.99,336.71,199.62      C2253.33,1730.77,2141.95,1506.07,2141.95,1506.07z" class="colorf4caba svgShape"/><g class="color000000 svgShape"><path fill="#2d8086" d="M2014.13,1363.8c0,0,20.05-3.76,70.92,40.93c52.72,46.32,89.37,130.77,89.37,130.77       s-115.66,88.39-157.42,68.33C1975.24,1583.78,1904.07,1421.49,2014.13,1363.8z" class="color6f9df7 svgShape"/></g><g class="color000000 svgShape" opacity=".15"><path fill="#f9f9f9" d="M2126.2,1490.37c-10.07-12.23-17.18-26.61-25.01-40.28c-13.58-23.73-29.11-50.18-52.84-65.07       c-11.19-7.02-24.65-10.08-37.32-5.31c-16.73,6.29-25.53,23.1-37.2,35.48c-3.68,3.9-7.69,6.77-11.9,8.82       c8-24.12,24.22-45.55,52.19-60.21c0,0,20.05-3.76,70.92,40.93c33.09,29.07,59.84,73.15,75.18,101.95       C2147.59,1512.9,2133.32,1499.02,2126.2,1490.37z" class="colorf2faff svgShape" opacity=".5"/><path fill="#342020" d="M1961.31,1500.09c9.59,7.8,19.46,11.59,31.28,14.66c13.85,3.6,24.54,8.43,30.64,22.1       c4.61,10.33,7.61,21.63,15.39,30.21c5.76,6.35,13.53,9.08,21.86,10.03c13.11,1.5,26.82,0.87,39.97,0.31       c4.04-0.17,8.06-0.46,12.06-0.87c-34.4,19.87-74.4,37.46-95.51,27.31c-20.92-10.05-49.22-55.82-58.42-106.24       C1959.5,1498.41,1960.35,1499.31,1961.31,1500.09z" class="color202234 svgShape"/></g><g class="color000000 svgShape"><path fill="#d7d7d7" d="M1823.29,1277l6.75,79.68c0,0,56.05,7.84,72.76-30.04l-25.74-61.89L1823.29,1277z" class="colorf4caba svgShape"/><path fill="#513c3c" d="M1879.89,1274.11c-0.32,22.94-50.54,40.06-43.17,59.3c3.73,9.75,14.92,14.11,24.85,15.58       c6.58,0.98,13.33,0.82,19.99-0.09c-22.5,11.84-51.53,7.78-51.53,7.78l-6.75-79.68L1879.89,1274.11z" class="color513f3c svgShape" opacity=".1"/><path fill="#432929" d="M1904.46,1141.17c0,0,39.93,33.89,28.47,86.94c-11.46,53.05-57.46,62.88-108.58,63.35       c-51.12,0.47-66.09-44.43-68.28-66.46c-2.19-22.03-25.88-20.09-15.26-48.34c10.63-28.25,21.92-53.92,70.68-55.86       C1860.25,1118.86,1904.46,1141.17,1904.46,1141.17z" class="color432d29 svgShape"/><path fill="#d7d7d7" d="M1762.71,1177.63c0,0-11.68-12.46-20.51-6.23c-8.83,6.23,1.94,51.16,17.59,41.29       C1775.43,1202.82,1762.71,1177.63,1762.71,1177.63z" class="colorf4caba svgShape"/><path fill="#d7d7d7" d="M1912.51,1151.48c0,0,23.31,122.41-78.91,137.91c-102.21,15.5-70.63-151.03-70.63-151.03       S1872.69,1128.09,1912.51,1151.48z" class="colorf4caba svgShape"/><path fill="#432929" d="M1915.56,1171.17c0,0-90.02,5.54-116.67-26.29c0,0-6.35,30.86-38.82,23.27       c-32.47-7.6-20.28-48.57,3.76-47.85c0,0,22.72-73.58,76-40.57c53.28,33.01,81.56,6.87,83.14,54.45       C1923.72,1156.23,1949.43,1174.16,1915.56,1171.17z" class="color432d29 svgShape"/><path fill="#432929" d="M1756.75,1183.75c-0.49,0-0.96-0.28-1.17-0.76c-0.03-0.06-2.66-5.87-6.71-6.8         c-1.76-0.4-3.54,0.18-5.43,1.76c-0.55,0.46-1.35,0.38-1.81-0.16c-0.46-0.54-0.39-1.35,0.16-1.81c2.52-2.12,5.1-2.9,7.66-2.3         c5.29,1.23,8.34,7.97,8.47,8.26c0.29,0.65,0,1.4-0.65,1.69C1757.1,1183.72,1756.92,1183.75,1756.75,1183.75z" class="color432d29 svgShape" opacity=".18"/><path fill="#432929" d="M1899.98,1160.91c0,0,20.38,37.48-5.05,64.22c-25.43,26.73-50.73-11.84-74.82-10.02       s-38.97,30.38-49.32,12.34c-10.35-18.04-12.42-34.34-7.8-68.04c-15-1.74-10.86,46.66-10.86,46.66s11.44,33.58,4.63,56.02       c-6.81,22.44,30.61,89.23,71.67,64.44c41.06-24.79,61.65-4.12,79.13-47.02S1946.5,1153.61,1899.98,1160.91z" class="color432d29 svgShape"/><path fill="#d7d7d7" d="M1902.43,1171.98c0,0,12.71-13.56,22.32-6.78c9.61,6.78-2.11,55.67-19.14,44.93        C1888.58,1199.39,1902.43,1171.98,1902.43,1171.98z" class="colorf4caba svgShape"/><path fill="#432929" d="M1907.11,1178.63c0.53,0,1.04-0.31,1.28-0.83c0.03-0.06,2.9-6.38,7.3-7.4         c1.91-0.43,3.85,0.19,5.91,1.92c0.59,0.5,1.47,0.42,1.97-0.17c0.5-0.59,0.42-1.47-0.17-1.96c-2.75-2.3-5.55-3.15-8.34-2.5         c-5.76,1.33-9.07,8.67-9.21,8.98c-0.31,0.7,0.01,1.53,0.71,1.84C1906.73,1178.6,1906.92,1178.63,1907.11,1178.63z" class="color432d29 svgShape" opacity=".18"/><path fill="#432929" d="M1915.89,1174.7c0,0,8.07,19.73-8.37,28.25C1907.52,1202.95,1932.03,1193.53,1915.89,1174.7z" class="color432d29 svgShape"/><path fill="#432929" d="M1871.64,1179.27c0,0-25.07,2.11-27.91,0c-2.84-2.11,4.26-8.34,15.61-7.05        C1870.69,1173.52,1874.47,1178.8,1871.64,1179.27z" class="color432d29 svgShape"/><path fill="#432929" d="M1850.47,1193.14c0,4.06,2.79,7.34,6.22,7.34c3.43,0,6.22-3.28,6.22-7.34c0-4.06-2.79-7.36-6.22-7.36        c-0.96,0-1.87,0.25-2.68,0.74c1.22,0.36,2.12,1.67,2.12,3.23c0,1.83-1.27,3.34-2.83,3.34c-1.14,0-2.14-0.82-2.57-1.98        C1850.56,1191.77,1850.47,1192.44,1850.47,1193.14z" class="color432d29 svgShape"/><path fill="#432929" d="M1805.55,1179.27c0,0-25.07,2.11-27.91,0c-2.84-2.11,4.26-8.34,15.61-7.05        C1804.6,1173.52,1808.38,1178.8,1805.55,1179.27z" class="color432d29 svgShape"/><path fill="#432929" d="M1784.38,1193.14c0,4.06,2.79,7.34,6.22,7.34c3.43,0,6.22-3.28,6.22-7.34c0-4.06-2.79-7.36-6.22-7.36        c-0.96,0-1.87,0.25-2.68,0.74c1.22,0.36,2.12,1.67,2.12,3.23c0,1.83-1.27,3.34-2.83,3.34c-1.14,0-2.14-0.82-2.57-1.98        C1784.47,1191.77,1784.38,1192.44,1784.38,1193.14z" class="color432d29 svgShape"/><path fill="#432929" d="M1814.45,1225.16c0.65,0,1.29-0.33,1.64-0.94c0.53-0.9,0.23-2.07-0.67-2.6c-4.25-2.5-4.96-3.99-5.02-4.66       c-0.11-1.38,2.28-3.34,4.82-5.41c1.54-1.26,3.28-2.69,4.92-4.34c7.77-7.81,5.7-28.81,5.61-29.7c-0.11-1.04-1.04-1.81-2.08-1.69       c-1.04,0.11-1.8,1.04-1.69,2.08c0.57,5.57,0.88,21.21-4.52,26.63c-1.5,1.51-3.1,2.82-4.64,4.08c-3.46,2.84-6.46,5.29-6.2,8.64       c0.2,2.6,2.32,4.96,6.88,7.64C1813.79,1225.08,1814.12,1225.16,1814.45,1225.16z" class="color432d29 svgShape"/><g class="color000000 svgShape"><path fill="#fff" d="M1792.94,1260.86c-0.48,0.08-0.94,0.29-1.32,0.64c-1.07,0.97-1.15,2.61-0.19,3.68        c0.26,0.28,6.4,6.96,16.69,7.11c8.77,0.14,17.67-4.43,26.45-13.57c1-1.04,0.97-2.69-0.07-3.69c-1.04-1-2.69-0.97-3.69,0.07        c-7.74,8.05-15.36,12.08-22.61,11.96c-8.05-0.12-12.85-5.34-12.9-5.4C1794.69,1261,1793.79,1260.72,1792.94,1260.86z" class="colorffffff svgShape"/></g></g></g><g fill="#0d0c0c" class="color000000 svgShape"><path fill="#f8f8f8" d="M2435.58,1263.45c-3.64,43.34-7.14,84.71-10.5,124.2c-1.12,13.3-2.24,26.39-3.29,39.28      c-0.21,2.59-2.73,4.9-5.6,5.11c-88.56,7.21-177.05,7.21-265.62,0c-2.87-0.21-5.39-2.52-5.6-5.11      c-4.34-51.11-8.89-105.51-13.79-163.47c-0.14-1.68,0.42-3.22,1.47-4.41c0.98-0.98,2.24-1.68,3.71-1.82      c57.34-5.25,115.1-7.35,172.78-6.44c40.47,0.63,81,2.73,121.26,6.44c1.4,0.14,2.66,0.77,3.5,1.68c0.21,0.21,0.42,0.42,0.56,0.63      c0,0.07,0.07,0.07,0.07,0.07C2435.3,1260.65,2435.72,1262.05,2435.58,1263.45z" class="colorf1f2ff svgShape"/><path fill="#2d8086" d="M2434.48,1259.56c0,0-48.49,57.56-116.51,76.4c-34.88-16.05-62.21-3.72-72.91,2.79h-0.12      c-36.28-8.02-74.65-31.4-112.33-79.65c0.93-1.05,2.21-1.74,3.72-1.86c97.56-8.95,196.51-8.95,294.07,0      c1.4,0.12,2.67,0.7,3.49,1.63C2434.24,1259.21,2434.36,1259.45,2434.48,1259.56z" class="colord3d9ef svgShape" opacity=".25"/><path fill="#2d8086" d="M2434.59,1259.45c-1.05-1.28-2.56-2.21-4.19-2.21c1.63,0.12,2.91,1.05,3.95,2.21v0.12     c-20.35,21.51-43.6,40-69.3,54.53c-15.23,8.84-30.35,15.23-45,19.42c-11.28-5.35-23.14-8.72-35.58-9.07     c-13.49,0.35-27.09,4.53-40.23,11.63c-41.4-9.54-78.95-36.86-111.4-76.98c0.35-0.58,0.81-0.93,1.4-1.28     c-0.46,0.23-1.05,0.58-1.51,1.16l-0.12,0.12c13.37,17.56,28.26,34.77,45.81,48.37c18.95,15.58,39.3,26.05,60.47,31.51     c-33.84,19.65-64.88,56.05-86.28,87.33c23.95-30.23,58.26-67.79,93.95-85.58c2.21-1.16,4.3-2.09,6.51-3.02     c10.46-4.54,20.93-7.21,31.4-7.44c9.07,0.12,18.02,2.09,26.74,5.47c1.98,0.7,3.95,1.51,5.93,2.44     c13.95,6.28,27.09,15.47,39.3,25.35c21.74,18.02,41.74,39.42,59.88,62.79c-16.86-25-36.16-47.56-57.79-66.51     c-10.58-9.07-21.86-17.56-33.72-23.84c14.3-4.42,28.37-10.81,41.98-19.07c25.58-15.23,48.61-34.65,67.79-57.21l0.12-0.12     L2434.59,1259.45z" class="colord3d9ef svgShape"/><path fill="#4f3d3d" d="M2435.58,1263.45c-3.64,43.34-7.14,84.71-10.5,124.2c-5.53,0.91-11.2,1.4-16.94,1.4    c-57.76,0-104.59-46.84-104.59-104.59c0-11.83,1.96-23.1,5.6-33.67c40.47,0.63,81,2.73,121.26,6.44c1.4,0.14,2.66,0.77,3.5,1.68    c0.21,0.21,0.42,0.42,0.56,0.63c0,0.07,0.07,0.07,0.07,0.07C2435.3,1260.65,2435.72,1262.05,2435.58,1263.45z" class="color4f3f3d svgShape" opacity=".2"/><circle cx="2408.15" cy="1284.45" r="84.03" fill="#2d8086" class="colord3d9ef svgShape" transform="rotate(-45.001 2408.15 1284.489)"/><circle cx="2408.15" cy="1284.45" r="74.24" fill="#fff" class="colorffffff svgShape" transform="rotate(-45.001 2408.15 1284.489)"/><path fill="#2d8086" d="M2452.81,1316.34c0,2.19-13.69,4.06-32.25,4.61c-0.55,5.9-5.46,10.53-11.49,10.53     c-6.03,0-10.94-4.63-11.49-10.53c-18.57-0.55-32.25-2.41-32.25-4.61c0-0.19,0.11-0.38,0.3-0.58     c8.91-8.23,12.75-20.65,14.78-32.61l1.45-8.61c0-11.79,7.38-21.86,17.8-25.81c1.23-0.47,2.11-1.62,2.11-2.93v-1.1     c0-4,3.26-7.27,7.27-7.27c4.03,0,7.32,3.29,7.32,7.32v1.04c0,1.32,0.88,2.47,2.11,2.93c0.16,0.05,0.33,0.11,0.47,0.19     c-6.01,3.87-9.98,10.61-9.98,18.29c0,12.01,9.74,21.75,21.75,21.75c2.77,0,5.4-0.52,7.84-1.45c2.19,10.56,6.12,21.03,13.96,28.25     C2452.71,1315.95,2452.81,1316.14,2452.81,1316.34z" class="colord3d9ef svgShape"/><path fill="#2d8086" d="M2430.71,1248.6c-10.28,0-18.62,8.34-18.62,18.62s8.34,18.62,18.62,18.62c10.28,0,18.62-8.34,18.62-18.62     S2440.99,1248.6,2430.71,1248.6z M2437.92,1276.87l-7.21-3.81l-7.24,3.81l1.4-8.04l-5.84-5.7l8.06-1.18l3.62-7.32l3.59,7.32     l8.09,1.18l-5.84,5.7L2437.92,1276.87z" class="colord3d9ef svgShape"/></g><path fill="#2d8086" d="M2668.61,1096.37c-17.58-33.25-50.28-56.79-86.13-66.86c-9.06-2.54-18.31-4.22-27.68-5.13   c-2.84-0.28-3.29,4.13-0.45,4.4c35.98,3.51,70.94,19.64,94.86,47.14c23.69,27.24,34.25,65.07,27.13,100.59   c-4.37,21.79-16.36,42.04-34.07,54.42c-0.87-4.79-2.1-9.54-3.78-14.2c-4.66-13-13.02-25.16-25.04-32.33   c-13.14-7.84-32.12-10.42-44.53,0.16c-23.46,20.01,1.4,56.96,25.75,62.08c15.13,3.18,30.73-0.53,44.26-8.28   c2.82,26.49-5.95,54.09-20.13,76.2c-32.87,51.21-92.65,77.36-150.08,89.72c-2.78,0.6-2.06,4.96,0.73,4.36   c57.03-12.27,115.93-37.77,150.14-87.29c16.89-24.46,27.26-55.66,23.44-85.49c11.39-7.45,20.99-17.75,27.09-29.03   C2688.45,1172.92,2686.41,1130.04,2668.61,1096.37z M2611.2,1242.87c-15.19,1.8-27.87-3.09-37.48-15.01   c-9.54-11.84-15.08-29.96-0.9-40.77c11.88-9.06,29.8-5.1,41.16,2.93c10.15,7.17,16.97,18.16,20.91,29.8   c1.52,4.5,2.6,9.09,3.35,13.72C2630.23,1238.37,2621.19,1241.69,2611.2,1242.87z" class="colord3d9ef svgShape"/></svg>