<svg xmlns="http://www.w3.org/2000/svg" viewBox="0 0 32 32"><g fill="#2d8086" class="color000000 svgShape" data-name="Layer 7"><path d="M22.25,20.68A24.22,24.22,0,0,0,25,11,9,9,0,0,0,7,11a24.22,24.22,0,0,0,2.75,9.68C6.44,21.46,4,22.91,4,25c0,3.28,6,5,12,5s12-1.72,12-5C28,22.91,25.56,21.46,22.25,20.68ZM9,11a7,7,0,0,1,14,0,21.34,21.34,0,0,1-2.8,9.29,12.87,12.87,0,0,1-1.27,1.86A4.19,4.19,0,0,1,16,24a4.19,4.19,0,0,1-2.93-1.85,12.87,12.87,0,0,1-1.27-1.86A21.34,21.34,0,0,1,9,11Zm7,17c-6,0-10-1.81-10-3,0-.8,1.81-1.89,4.84-2.51C12.25,24.55,14,26,16,26s3.75-1.45,5.16-3.51C24.19,23.11,26,24.2,26,25,26,26.19,22,28,16,28Z" class="color000000 svgShape"/><path d="M16,15a4,4,0,1,0-4-4A4,4,0,0,0,16,15Zm0-6a2,2,0,1,1-2,2A2,2,0,0,1,16,9Z" class="color000000 svgShape"/></g></svg>