<svg xmlns="http://www.w3.org/2000/svg" viewBox="0 0 50 50"><path fill="#2d8086" d="M37.301 9.222H12.699c-.869 0-1.574.705-1.574 1.574V20.7h27.749v-9.904a1.572 1.572 0 0 0-1.573-1.574z" class="colora57b51 svgShape"/><path fill="#2d8086" d="M11.125 19.447 2.043 29.779h45.914l-9.082-10.332z" class="colorbf8e5f svgShape"/><path fill="#2d8086" d="M40.915 20.085a1.547 1.547 0 0 0-1.252-.638H10.337c-.495 0-.961.237-1.252.638l-7.042 9.694h45.914l-7.042-9.694z" class="colored7161 svgShape"/><path fill="#fff" d="M36.664 19.572a3.483 3.483 0 0 0-.275-.524c-.399-.622-.28-1.077-.28-2.507 0-.32.107-.627.28-.896.106-.165.198-.339.274-.521.272-.648-.375-1.327-1.024-1.057l-.012.005c-.06.025-.12.051-.178.079-.339.164-.72.216-1.086.124a9.088 9.088 0 0 0-4.472.001 1.604 1.604 0 0 1-1.093-.124 3.57 3.57 0 0 0-.178-.08l-.012-.005c-.649-.27-1.297.41-1.024 1.058.077.182.169.356.275.52.401.623.281 1.079.281 2.506 0 .625-.316.847-.557 1.421-.273.649.375 1.328 1.024 1.058l.012-.005c.06-.025.12-.051.178-.079a1.604 1.604 0 0 1 1.097-.125 9.075 9.075 0 0 0 4.463.001c.537-.137.817.019 1.268.203.684.278 1.305-.418 1.039-1.053z" class="colorffffff svgShape"/><path fill="#f3f3f3" d="M32.128 19.925c-1.975 0-2.478-.652-3.666-.078-.045.022-.09.042-.134.06.029-.178.101-.313.183-.441.264-.41.404-.865.404-1.316 0-1.451.135-2.087-.404-2.924a2.557 2.557 0 0 1-.212-.401.238.238 0 0 1 .056-.007c.043 0 .076.015.107.03 1.251.603 1.628-.078 3.667-.078 2.018 0 2.416.677 3.657.078.044-.021.089-.042.135-.06a1.16 1.16 0 0 1-.184.441 2.439 2.439 0 0 0-.401 1.313c0 3.087.115 2.138.615 3.33a.217.217 0 0 1-.165-.024c-1.243-.599-1.633.077-3.658.077z" class="colore6e6e6 svgShape"/><path fill="#fff" d="M22.417 19.572c-.241-.574-.555-.797-.555-1.42 0-1.43-.12-1.885.28-2.507.106-.165.198-.339.274-.521.272-.648-.375-1.327-1.024-1.057l-.012.005c-.06.025-.12.051-.178.079-.339.164-.72.216-1.086.124a9.088 9.088 0 0 0-4.472.001 1.604 1.604 0 0 1-1.093-.124 3.57 3.57 0 0 0-.178-.08l-.012-.005c-.649-.27-1.297.41-1.024 1.058.24.571.556.794.556 1.418 0 1.425.12 1.882-.281 2.506-.106.165-.199.34-.275.522-.273.649.375 1.328 1.024 1.058l.012-.005c.06-.025.12-.051.178-.079a1.604 1.604 0 0 1 1.097-.125 9.075 9.075 0 0 0 4.463.001c.367-.093.749-.04 1.09.124.058.028.118.055.178.079l.012.005c.65.27 1.297-.409 1.026-1.057z" class="colorffffff svgShape"/><path fill="#f3f3f3" d="M17.881 19.925c-1.975 0-2.478-.652-3.666-.078a1.99 1.99 0 0 1-.135.06c.03-.178.101-.313.183-.441.538-.836.403-1.472.403-2.923 0-.451-.14-.906-.404-1.317a2.557 2.557 0 0 1-.212-.401.238.238 0 0 1 .056-.007c.043 0 .076.015.107.03 1.187.573 1.689-.078 3.667-.078 2.018 0 2.416.677 3.657.078.044-.021.089-.042.135-.06a1.16 1.16 0 0 1-.184.441c-.536.833-.401 1.469-.401 2.923 0 .45.139.905.402 1.314.082.127.153.263.213.406a.23.23 0 0 1-.055.007.245.245 0 0 1-.11-.03c-1.261-.61-1.643.076-3.656.076zM45.323 25.257l-.089-.111c-1.03-1.291-2.863-1.835-4.524-1.324-.976.3-5.962 1.356-7.877.059-1.562-1.058-4.27-1.547-7.703-.748-10.369 2.413-8.768-2.752-15.991-.654-1.138.33-3.43 1.487-4.132 2.366l-1.151 1.442v3.492h42.421v-3.328l-.954-1.194z" class="colore6e6e6 svgShape"/><path fill="#2d8086" d="M45.838 26.294H4.162a3.095 3.095 0 0 0-3.095 3.095v10.616c0 .427.346.774.774.774h3.258a.768.768 0 0 0 .759-.659 4.481 4.481 0 0 1 4.432-3.821h29.426a4.481 4.481 0 0 1 4.432 3.821.769.769 0 0 0 .76.659h3.25a.775.775 0 0 0 .774-.774V29.389a3.094 3.094 0 0 0-3.094-3.095z" class="colorbf8e5f svgShape"/><path fill="#2d8086" d="M45.838 28.615H4.162a.775.775 0 0 0-.774.774v9.068h.51c.962-2.628 3.508-4.48 6.392-4.48h29.427c2.885 0 5.431 1.852 6.393 4.48h.502v-9.068a.775.775 0 0 0-.774-.774z" class="colora57b51 svgShape"/></svg>