<svg xmlns="http://www.w3.org/2000/svg" enable-background="new 0 0 64 64" viewBox="0 0 64 64"><path fill="#2d8086" d="M56.41,33.54c-0.76,0.8-1.54,1.58-2.33,2.35c-0.34,0.34-0.69,0.68-1.03,1.03L33.22,56.75
		c-0.08,0.08-0.15,0.17-0.23,0.27l-0.19,0.24c-0.17,0.22-0.44,0.35-0.72,0.36h-0.05c-0.26,0-0.52-0.1-0.71-0.29l-1.24-1.26
		c-0.79-0.79-1.54-1.55-2.29-2.3L7.92,33.9c-3.22-3.22-4.84-7.1-4.84-11.53C3.08,15.15,7.9,8.83,14.79,7
		c5.71-1.52,10.94-0.21,15.34,3.83c0.39,0.35,0.75,0.73,1.12,1.1l0.16,0.17c0.19,0.19,0.37,0.38,0.56,0.58
		c0.45-0.46,0.9-0.94,1.41-1.37l0.63-0.53c0.94-0.82,1.92-1.66,3.05-2.3c2.4-1.38,5.11-2.1,7.84-2.1c7.79,0,14.41,5.55,15.75,13.19
		C61.58,24.85,60.15,29.56,56.41,33.54z" class="colorf04d59 svgShape"/></svg>