<svg xmlns="http://www.w3.org/2000/svg" data-name="Layer 1" viewBox="0 0 64 64"><path fill="#2d8086" d="M62.81 31.51 53.72 24V9a1.3 1.3 0 0 0-1.3-1.3h-6.08A1.31 1.31 0 0 0 45 9v7.89l-9.72-8a5.23 5.23 0 0 0-6.63 0L1.19 31.51A1.29 1.29 0 0 0 1 33.34l2.77 3.37a1.32 1.32 0 0 0 1.84.18l25.55-21a1.32 1.32 0 0 1 1.66 0l25.56 21a1.31 1.31 0 0 0 1.84-.18L63 33.34a1.29 1.29 0 0 0-.18-1.83Z" class="color000000 svgShape"/><path fill="#2d8086" d="M32.83 20.29a1.32 1.32 0 0 0-1.66 0l-20 16.5v17.8a1.74 1.74 0 0 0 1.74 1.74h3.49V43.06a2.88 2.88 0 0 1 2.88-2.88h8.62a2.88 2.88 0 0 1 2.88 2.88v13.27h20.34a1.74 1.74 0 0 0 1.74-1.74V36.78Zm15 27A1.7 1.7 0 0 1 46.16 49h-8.24a1.7 1.7 0 0 1-1.7-1.7v-5.75a1.7 1.7 0 0 1 1.7-1.7h8.24a1.7 1.7 0 0 1 1.69 1.7Z" class="color000000 svgShape"/></svg>