<svg xmlns="http://www.w3.org/2000/svg" viewBox="0 0 32 32"><g fill="#2d8086" class="color000000 svgShape" data-name="Layer 5"><path d="M7,28H17a3,3,0,0,0,3-3V24a1,1,0,0,0-2,0v1a1,1,0,0,1-1,1H7a1,1,0,0,1-1-1V7A1,1,0,0,1,7,6H17a1,1,0,0,1,1,1V8a1,1,0,0,0,2,0V7a3,3,0,0,0-3-3H7A3,3,0,0,0,4,7V25A3,3,0,0,0,7,28Z" class="color000000 svgShape"/><path d="M24.29,11.05a1,1,0,0,0-1.41,1.41L25.41,15H11a1,1,0,0,0,0,2H25.41l-2.53,2.54a1,1,0,0,0,0,1.41,1,1,0,0,0,1.41,0l2.83-2.83a3,3,0,0,0,0-4.24Z" class="color000000 svgShape"/></g></svg>