<svg xmlns="http://www.w3.org/2000/svg" viewBox="0 0 64 64"><path fill="#2d8086" d="M24.386 55.381 9.064 41.883l-6.382 7.085 15.334 13.495 6.37-7.082zM35.099 2.827h7.212v12.319h-7.212zM44.311 2.827h10.154v7.602H44.311z" class="color000000 svgShape"/><path fill="#2d8086" d="M44.311 16.145a1 1 0 0 1-1 1H34.1a1 1 0 0 1-1-1v-3.717H22.945v17.035h31.519V12.428H44.311ZM32.378 25.8h-5.592v-2h5.592Zm0-4.259h-5.592v-2h5.592ZM22.945 2.827h10.154v7.602H22.945zM59.218 32.274h-3.155a4.7 4.7 0 0 0-3.32 1.375l-4.873 4.873h-20.5v-2h12.1a2.694 2.694 0 0 0-2.62-3.463H24.9a7.077 7.077 0 0 0-5.122 2.193l-6.95 7.284 10.554 9.3 4.767-4.961h19.04a6.733 6.733 0 0 0 5.68-3.118l6.793-10.672a.527.527 0 0 0-.444-.811Z" class="color000000 svgShape"/></svg>