<svg xmlns="http://www.w3.org/2000/svg" fill-rule="evenodd" clip-rule="evenodd" image-rendering="optimizeQuality" shape-rendering="geometricPrecision" text-rendering="geometricPrecision" viewBox="0 0 623 623"><rect width="623" height="623" fill="none"/><path fill="#2d8086" d="M132 149l41 -1 0 80c0,15 11,26 26,26 14,0 25,-11 25,-26l0 -80 154 0 0 80c0,15 11,26 25,26 14,0 26,-11 26,-26l0 -81 28 0c3,0 6,3 7,7l26 245 -78 2c-14,0 -25,12 -25,25 1,12 9,22 20,24 2,16 7,30 16,44 6,10 14,19 23,27 -9,8 -16,17 -22,28 -7,13 -12,27 -13,42 -3,0 -7,2 -9,4l-303 -2c-3,0 -4,-1 -6,-2 -1,-2 -2,-4 -2,-6l34 -430c0,-4 3,-6 7,-6z" class="colore2311d svgShape"/><polygon fill="#2d8086" points="110 160 77 589 63 560 37 551" class="colore2311d svgShape"/><path fill="#2d8086" fill-rule="nonzero" d="M210 228c0,7 -5,11 -11,11 -7,0 -11,-4 -11,-11l0 -115c0,-31 12,-59 33,-80 20,-20 49,-33 80,-33 31,0 59,13 80,33 21,21 33,49 33,80l0 115c0,7 -5,11 -11,11 -6,0 -11,-4 -11,-11l0 -115c0,-25 -10,-48 -27,-64 -16,-17 -39,-27 -64,-27 -25,0 -48,10 -65,27 -16,16 -26,39 -26,64l0 115z" class="color161616 svgShape"/><g fill="#2d8086" class="color000000 svgShape"><path d="M539 448c-29 18-61-21-91 1-3 28 26 53 48 64 24-13 46-36 43-65zM542 604l-90 4c-4-22 24-62 42-64 17-1 50 36 48 60z" class="color161616 svgShape"/><path fill-rule="nonzero" d="M478 524c-14,10 -26,22 -33,36 -8,14 -12,30 -11,48l126 -3c1,-17 -3,-32 -10,-45 -9,-15 -22,-27 -37,-38 -2,-1 -2,-2 -2,-4 0,-1 0,-3 2,-4 14,-10 25,-22 33,-36 8,-13 12,-29 10,-47l-126 3c-1,18 4,34 12,47 9,14 21,25 36,35 1,1 2,2 2,4 0,2 -1,3 -2,4zm-39 33c7,-12 17,-23 29,-33 1,-1 2,-2 2,-4 0,-1 -1,-3 -2,-3 -13,-10 -23,-20 -31,-33 -9,-15 -15,-33 -13,-54l0 -3 138 -2 0 2c2,21 -2,39 -10,54 -7,13 -17,24 -29,33 -1,1 -2,2 -2,4 0,2 1,3 2,4 13,10 24,22 32,35 8,15 13,32 11,52l0 3c-46,1 -92,1 -137,2l-1 -2c-2,-21 2,-39 11,-55z" class="color161616 svgShape"/><rect width="1101" height="151" class="color161616 svgShape" rx="75" ry="75" transform="matrix(.1609 -.00325 .00208 .10265 408.297 607.423)"/><rect width="1101" height="151" class="color161616 svgShape" rx="75" ry="75" transform="matrix(.1609 -.00325 .00208 .10265 404.472 418.322)"/></g></svg>