<svg xmlns="http://www.w3.org/2000/svg" fill-rule="evenodd" stroke-linejoin="round" stroke-miterlimit="2" clip-rule="evenodd" viewBox="0 0 100 101"><path fill="#2d8086" d="M49.001,50.377l0,5.881c0,14.231 5.763,27.856 15.974,37.768c0.975,0.948 1.926,1.87 2.827,2.744c1.839,1.786 4.312,2.767 6.875,2.729c2.563,-0.039 5.005,-1.094 6.79,-2.935c0.846,-0.872 1.737,-1.79 2.649,-2.73c9.525,-9.821 14.853,-22.966 14.853,-36.649l0,-6.808c0,-3.64 -2.951,-6.591 -6.591,-6.591l-36.785,0c-3.64,0 -6.592,2.951 -6.592,6.591Zm-25.092,-28.121l0,36.578c0,1.401 0.803,2.678 2.066,3.284c1.262,0.607 2.76,0.437 3.854,-0.438l8.009,-6.408l7.763,6.211c1.042,11.183 5.409,21.794 12.52,30.464l-52.977,0c-2.254,0 -4.082,-1.828 -4.082,-4.083c0,0 -0.071,-53.74 0,-65.388c0.001,-0.074 0.003,-0.147 0.008,-0.22l22.839,0Zm45.857,53.773l18.81,-18.81c0.796,-0.797 2.089,-0.797 2.887,-0c0.796,0.796 0.796,2.09 -0,2.887l-20.255,20.253c-0.797,0.797 -2.089,0.797 -2.886,-0l-10.127,-10.126c-0.797,-0.798 -0.797,-2.091 -0,-2.887c0.797,-0.797 2.09,-0.797 2.886,-0l8.685,8.683Zm-42.213,-53.773l20.571,0l-0,21.124c-1.716,1.83 -2.766,4.291 -2.766,6.997l-0,5.881c-0,0.122 0,0.243 0.001,0.365l-7.521,-6.017l-10.285,8.228l0,-36.578Zm24.214,0l19.005,0l-0,17.887l-15.179,-0c-1.353,-0 -2.644,0.262 -3.826,0.739l0,-18.626Zm39.02,-17.995c0.142,0.414 0.219,0.859 0.219,1.322l-0,34.56l-16.591,-0l0,-19.124l16.372,-16.758Zm-87.728,14.352l13.166,-15.658c0.775,-0.922 1.918,-1.455 3.124,-1.455l67.575,0c0.443,0 0.869,0.071 1.269,0.202l-16.521,16.911l-68.613,-0Z" class="color000000 svgShape"/></svg>