<svg xmlns="http://www.w3.org/2000/svg" data-name="glyph" viewBox="0 0 64 64"><path fill="#2d8086" d="M38.77545 16.87244H14.89087a2.65006 2.65006 0 00-2.63178 2.32885l-.09466.76679H8.889A.94679.94679 0 008.889 21.86145c3.12726.00458 6.86835-.00452 9.99682 0a.94676.94676 0 01-.00006 1.89331c-2.08484.00818-5.13885-.00586-7.18524 0l-.16095 1.278h-4.686a.94679.94679 0 00.00006 1.89337c3.682-.00025 8.3482.00012 12.03222 0a.94676.94676 0 01-.00006 1.89331c-2.19452-.0033-5.64215.00238-7.81 0l-.161 1.28753h-5.983a.94681.94681 0 00.00007 1.89338c4.22558-.01032 9.7774.00738 13.95391 0a.94679.94679 0 01-.00006 1.89331c-1.387.00024-7.15411-.00013-8.42541 0A2.84856 2.84856 0 0013.291 36.94189l25.13428.00007a.94948.94948 0 00.9372-.83307c.41217-3.483 1.53528-12.889 2.0448-16.226A2.678 2.678 0 0038.77545 16.87244zM35.44318 28.526a.94676.94676 0 01.00006-1.89331A.94676.94676 0 0135.44318 28.526zm1.49578-3.976l-.04736.3313a.946.946 0 01-1.87445-.25568l.284-2.07318H31.97839a.94677.94677 0 01.00006-1.89337h4.41138a.95576.95576 0 01.93726 1.07922zM23.07959 42.39484a2.36679 2.36679 0 00.00006 4.73333A2.36679 2.36679 0 0023.07959 42.39484zM21.83 44.76147a1.24972 1.24972 0 012.4992.00007A1.24972 1.24972 0 0121.83 44.76147z" class="color000000 svgShape"/><path fill="#2d8086" d="M14.94763 42.196a2.3829 2.3829 0 002.3194 2.86841l1.562.00006c-.00946-.10412-.00946-.19879-.00946-.30291a4.25959 4.25959 0 118.51062.303l10.79211-.00006c.077-1.2843.38575-4.90558.50171-6.23858-.28271.00317-22.90954.00946-22.90954.00946zM50.0788 42.39484a2.36679 2.36679 0 00.00006 4.73333A2.36679 2.36679 0 0050.0788 42.39484zm0 3.61627a1.24973 1.24973 0 01.00006-2.49921A1.24973 1.24973 0 0150.0788 46.01111z" class="color000000 svgShape"/><polygon fill="#2d8086" points="45.715 31.518 45.516 33.108 48.167 33.108 47.532 31.518 45.715 31.518" class="color000000 svgShape"/><path fill="#2d8086" d="M57.23566 40.937a.94676.94676 0 010-1.89331c.583-.00012 2.16467.00006 2.76434 0l-.00006-.2746a3.53155 3.53155 0 00-3.39856-2.92517l-2.08264-.05682a1.75 1.75 0 01-1.57154-1.06976l-2.15838-5.14991a4.62491 4.62491 0 00-4.28845-2.84948H42.40125c-.13123 1.17413-1.00739 8.27716-1.16443 9.61816-.03492.79645-.567 1.18524-.64386 1.6283-.11036 1.34674-.50428 5.82354-.54895 7.10009h5.78424a4.31454 4.31454 0 01.29345-1.89337c1.80518-4.44928 8.5401-2.89679 8.20765 1.89337H56.9422a3.06247 3.06247 0 003.05774-3.05774V40.937C59.38739 40.93774 57.81909 40.9364 57.23566 40.937zm-7.41248-6.693a1.73938 1.73938 0 01-1.439.75732H45.34546a1.72466 1.72466 0 01-1.30646-.58691c-.77722-.7287-.22833-2.36768-.17987-3.266a1.73759 1.73759 0 011.723-1.52411c1.20087.08862 2.79437-.37415 3.50269.77618C49.47473 31.55652 50.65088 33.17047 49.82318 34.244zM23.07959 44.28815a.47343.47343 0 000 .94671A.47343.47343 0 0023.07959 44.28815z" class="color000000 svgShape"/><path fill="#2d8086" d="M50.0788,44.28815a.47343.47343,0,0,0,0,.94671A.47343.47343,0,0,0,50.0788,44.28815Z" class="color000000 svgShape"/></svg>