<svg xmlns="http://www.w3.org/2000/svg" enable-background="new 0 0 152 152" viewBox="0 0 152 152"><linearGradient id="a" x1="-186.155" x2="-104.879" y1="-643.998" y2="-517.342" gradientTransform="rotate(45.001 -833.042 17.358)" gradientUnits="userSpaceOnUse"><stop class="stopColor00d2ff svgShape" offset="0" stop-color="#2d8086"/><stop class="stopColor3979d3 svgShape" offset="1" stop-color="#2d8086"/></linearGradient><path fill="url(#a)" d="M133.723,29.376l15.714,58.649c1.322,4.936-0.089,10.202-3.702,13.815
		l-42.905,42.905c-3.613,3.613-8.879,5.024-13.815,3.702l-58.649-15.714c-4.936-1.322-8.791-5.178-10.113-10.113L4.539,63.97
		C3.216,59.034,4.627,53.768,8.24,50.155L51.145,7.25c3.613-3.613,8.879-5.024,13.815-3.702l58.649,15.715
		C128.545,20.585,132.4,24.44,133.723,29.376z" opacity=".5"/><linearGradient id="b" x1="38.914" x2="120.191" y1="16.666" y2="143.321" gradientUnits="userSpaceOnUse"><stop class="stopColor00d2ff svgShape" offset="0" stop-color="#2d8086"/><stop class="stopColor3979d3 svgShape" offset="1" stop-color="#2d8086"/></linearGradient><path fill="url(#b)" d="M84.139,2.913l52.583,30.359c4.425,2.555,7.151,7.276,7.151,12.386v60.677
		c0,5.11-2.726,9.831-7.151,12.386l-52.583,30.359c-4.425,2.555-9.877,2.555-14.303,0l-52.583-30.359
		c-4.425-2.555-7.151-7.276-7.151-12.386V45.659c0-5.11,2.726-9.831,7.151-12.386L69.837,2.913
		C74.262,0.358,79.714,0.358,84.139,2.913z"/><linearGradient id="c" x1="14.654" x2="23.139" y1="9.733" y2="22.956" gradientUnits="userSpaceOnUse"><stop class="stopColor00d2ff svgShape" offset="0" stop-color="#2d8086"/><stop class="stopColor3979d3 svgShape" offset="1" stop-color="#2d8086"/></linearGradient><path fill="url(#c)" d="M28.23,16.345L28.23,16.345c-5.155,0-9.334,4.179-9.334,9.334h0
		c0-5.155-4.179-9.334-9.334-9.334v0c5.155,0,9.334-4.179,9.334-9.334h0C18.896,12.166,23.075,16.345,28.23,16.345z"/><linearGradient id="d" x1="133.408" x2="138.672" y1="13.265" y2="21.468" gradientUnits="userSpaceOnUse"><stop class="stopColor00d2ff svgShape" offset="0" stop-color="#2d8086"/><stop class="stopColor3979d3 svgShape" offset="1" stop-color="#2d8086"/></linearGradient><path fill="url(#d)" d="M141.83,17.366L141.83,17.366c-3.198,0-5.79,2.592-5.79,5.79h0c0-3.198-2.592-5.79-5.79-5.79
		v0c3.198,0,5.79-2.592,5.79-5.79h0C136.04,14.774,138.632,17.366,141.83,17.366z"/><linearGradient id="e" x1="12.72" x2="17.984" y1="135.559" y2="143.761" gradientUnits="userSpaceOnUse"><stop class="stopColor00d2ff svgShape" offset="0" stop-color="#2d8086"/><stop class="stopColor3979d3 svgShape" offset="1" stop-color="#2d8086"/></linearGradient><path fill="url(#e)" d="M21.142,139.659L21.142,139.659c-3.198,0-5.79,2.592-5.79,5.79h0
		c0-3.198-2.592-5.79-5.79-5.79v0c3.198,0,5.79-2.592,5.79-5.79h0C15.352,137.067,17.944,139.659,21.142,139.659z"/><linearGradient id="f" x1="38.076" x2="111.904" y1="113.924" y2="40.096" gradientUnits="userSpaceOnUse"><stop class="stopColor687184 svgShape" offset="0" stop-color="#fff"/><stop class="stopColor2c3e50 svgShape" offset="1" stop-color="#fff"/></linearGradient><path fill="url(#f)" d="M107.195,35.993v80.013c0,5.519-4.474,9.993-9.993,9.993H54.798
	c-5.519,0-9.993-4.474-9.993-9.993V35.993c0-5.519,4.474-9.993,9.993-9.993h42.404C102.721,26,107.195,30.474,107.195,35.993z"/><linearGradient id="g" x1="72.022" x2="81.138" y1="110.289" y2="119.405" gradientUnits="userSpaceOnUse"><stop class="stopColorebf4f5 svgShape" offset="0" stop-color="#f3f3f3"/><stop class="stopColorb5c6e0 svgShape" offset="1" stop-color="#f9f9f9"/></linearGradient><path fill="url(#g)" d="M80.32,114.27c0,0.39-0.1,0.78-0.25,1.12c-0.42,0.87-1.31,1.46-2.34,1.46h-3.47
	c-1.02,0-1.9-0.59-2.32-1.46c-0.16-0.34-0.25-0.73-0.25-1.12c0-0.72,0.28-1.36,0.75-1.83c0.47-0.46,1.11-0.75,1.82-0.75h3.47
	C79.17,111.69,80.32,112.84,80.32,114.27z"/><linearGradient id="h" x1="70.666" x2="80.221" y1="30.934" y2="40.489" gradientUnits="userSpaceOnUse"><stop class="stopColorebf4f5 svgShape" offset="0" stop-color="#f3f3f3"/><stop class="stopColorb5c6e0 svgShape" offset="1" stop-color="#f9f9f9"/></linearGradient><path fill="url(#h)" d="M85.67,35.68v1.18c0,0.13-0.02,0.26-0.06,0.38c-0.16,0.56-0.68,0.96-1.29,0.96H67.68
	c-0.61,0-1.12-0.4-1.28-0.96c-0.04-0.12-0.06-0.25-0.06-0.38v-1.18c0-0.74,0.59-1.34,1.34-1.34h16.64
	C85.06,34.34,85.67,34.94,85.67,35.68z"/><linearGradient id="i" x1="62.136" x2="92.467" y1="62.136" y2="92.467" gradientUnits="userSpaceOnUse"><stop class="stopColorc9e59f svgShape" offset="0" stop-color="#fff"/><stop class="stopColor26a776 svgShape" offset="1" stop-color="#2d8086"/></linearGradient><path fill="url(#i)" d="M96.749,76c0,11.463-9.283,20.758-20.745,20.758c-11.463,0-20.758-9.296-20.758-20.758
	c0-11.463,9.296-20.758,20.758-20.758C87.467,55.242,96.749,64.537,96.749,76z"/><linearGradient id="j" x1="71.605" x2="81.395" y1="69.409" y2="79.2" gradientUnits="userSpaceOnUse"><stop class="stopColorebf4f5 svgShape" offset="0" stop-color="#f3f3f3"/><stop class="stopColorb5c6e0 svgShape" offset="1" stop-color="#f9f9f9"/></linearGradient><path fill="url(#j)" d="M85.56,71.41L73.61,83.35c-0.36,0.38-0.86,0.58-1.38,0.58c-0.53,0-1.02-0.2-1.39-0.58
	l-4.4-4.38c-0.75-0.76-0.75-2.01,0-2.77c0.04-0.04,0.08-0.08,0.12-0.11c0.77-0.66,1.93-0.62,2.66,0.11l3.01,3l10.56-10.56
	c0.72-0.72,1.88-0.76,2.65-0.1c0.04,0.02,0.08,0.06,0.12,0.1C86.31,69.41,86.31,70.65,85.56,71.41z"/></svg>