<svg xmlns="http://www.w3.org/2000/svg" viewBox="0 0 68 68"><path fill="#2d8086" d="M43.63 16.56v-5.1c0-.86-.7-1.56-1.56-1.56H13.64c-.87 0-1.56.7-1.56 1.56v5.1c0 .86.69 1.57 1.56 1.57h28.43c.86 0 1.56-.71 1.56-1.57zM17 23.84h-4.9c-1.09 0-1.98.89-1.98 1.99v4.9c0 1.09.89 1.98 1.98 1.98H17c1.1 0 1.98-.89 1.98-1.98v-4.9c0-1.1-.88-1.99-1.98-1.99zm0 13.09h-4.9c-1.09 0-1.98.89-1.98 1.99v4.9c0 1.09.89 1.98 1.98 1.98H17c1.1 0 1.98-.89 1.98-1.98v-4.9c0-1.1-.88-1.99-1.98-1.99zm0 13.09h-4.9c-1.09 0-1.98.9-1.98 1.99v4.9c0 1.09.89 1.99 1.98 1.99H17c1.1 0 1.98-.9 1.98-1.99v-4.9c0-1.09-.88-1.99-1.98-1.99zM45.1 25.1H25.64a.97.97 0 0 0 0 1.94H45.1a.97.97 0 0 0 0-1.94zm-19.46 6.36H36.3a.971.971 0 0 0 0-1.94H25.64a.97.97 0 0 0 0 1.94zm14.64 6.73H25.64a.97.97 0 0 0 0 1.94h14.64a.97.97 0 0 0 0-1.94zm-3.98 4.42H25.64a.971.971 0 0 0 0 1.94H36.3a.971.971 0 0 0 0-1.94zM25.64 57.64H36.3a.971.971 0 0 0 0-1.94H25.64a.97.97 0 0 0 0 1.94z" class="color000000 svgShape"/><path fill="#2d8086" d="m63.57 39.97-9.28-3.33c-.37-.13-.76-.18-1.15-.15V9.73c0-4.26-3.47-7.73-7.73-7.73H10.29C6.03 2 2.56 5.47 2.56 9.73v48.54c0 4.27 3.47 7.73 7.73 7.73h35.12c1.71 0 3.29-.55 4.57-1.5.64.41 1.34.81 2.08 1.19.39.22.83.31 1.28.31.43 0 .87-.09 1.28-.31 10.63-5.45 10.82-14.25 10.82-14.63v-8.43c0-1.19-.76-2.26-1.87-2.66zm-20.48 0c-1.12.4-1.88 1.47-1.88 2.66v8.43c0 .03 0 .1.01.22H25.64a.971.971 0 0 0 0 1.94h15.87c.56 2.46 2.16 6.56 6.76 10.08-.84.48-1.82.76-2.86.76H10.29c-3.19 0-5.79-2.59-5.79-5.79V9.73a5.8 5.8 0 0 1 5.79-5.79h35.12c3.2 0 5.79 2.6 5.79 5.79v27.33l-8.11 2.91zm12.83 14.21c.16.596-.304 1.23-.98 1.23h-3.22c-.678 0-1.138-.639-.98-1.23l.76-3.28c-1.334-.8-2.038-2.5-1.52-4.13 1.22-3.77 6.87-2.877 6.87 1.12 0 1.24-.66 2.37-1.69 3l.76 3.29z" class="color000000 svgShape"/></svg>