<svg xmlns="http://www.w3.org/2000/svg" enable-background="new 0 0 1024 1024" viewBox="0 0 1024 1024"><path fill="#2d8086" d="M527.1,975.4c33.8-21.5,67.7-42.9,101.5-64.4c15.3-9.7,30.8-19.3,45.7-29.7c34.7-24.2,67.2-51.8,96-82.8
				c57.2-61.4,100.8-134.3,128.4-213.5c22.7-65.3,32.3-133.9,32.3-202.9c0-43.2,0-86.4,0-129.6c0-1.2,0-2.3,0-3.5
				c0-13.4-9.4-25.1-22-28.9c-12.2-3.7-24.3-7.5-36-12.4c2.4,1,4.8,2,7.2,3c-12-5.1-23.7-11-34.8-17.8c-5.5-3.4-10.9-6.9-16.2-10.7
				c-1.4-1-2.7-2-4.1-3c-0.6-0.4-1.1-0.9-1.7-1.3c-2.5-1.9,3.6,2.9,3.2,2.5c-2.4-2.3-5.3-4.2-7.8-6.3c-9.9-8.3-19.1-17.4-27.7-27
				c-2.1-2.3-4.1-4.7-6.1-7.1c-1.1-1.3-2.1-2.6-3.2-3.9c-2.9-3.6,4.4,5.9,0.7,0.9c-3.9-5.2-7.6-10.5-11.1-16
				c-8.1-12.6-15.1-25.9-20.9-39.7c1,2.4,2,4.8,3,7.2c-3-7.2-5.8-14.6-8.2-22c-4.1-12.6-15.3-22-28.9-22c-13.6,0-27.2,0-40.8,0
				c-32.6,0-65.3,0-97.9,0c-39.3,0-78.6,0-117.9,0c-34.1,0-68.2,0-102.3,0c-16.5,0-33.1-0.5-49.6,0c-0.2,0-0.5,0-0.7,0
				c-13.6,0-24.9,9.4-28.9,22c-2.4,7.5-5.1,14.8-8.2,22c1-2.4,2-4.8,3-7.2c-5.1,12-11.1,23.7-17.9,34.8c-3.4,5.5-7,10.9-10.8,16.2
				c-1,1.4-2,2.7-3,4.1c-0.4,0.6-0.9,1.1-1.3,1.7c-1.9,2.5,2.9-3.6,2.5-3.2c-2.3,2.3-4.2,5.3-6.3,7.8c-8.3,9.9-17.4,19.1-27.1,27.6
				c-2.3,2.1-4.7,4.1-7.1,6c-1.3,1.1-2.6,2.1-3.9,3.1c-3.6,2.9,5.9-4.4,0.9-0.8c-5.2,3.9-10.5,7.6-16,11.1
				c-12.6,8.1-25.9,15-39.7,20.9c2.4-1,4.8-2,7.2-3c-11.8,4.9-23.8,8.7-36,12.4c-12.7,3.8-22,15.5-22,28.9c0,40.2,0,80.4,0,120.6
				c0,21.2,0,42.4,1.5,63.6c3.1,42.2,10.3,84.3,22.2,124.9c23.6,80.6,64.2,155.1,118.2,219.3c42.3,50.2,93.2,90.9,148.5,126
				c36.9,23.4,73.8,46.8,110.7,70.2c0.9,0.6,1.9,1.2,2.8,1.8c13.3,8.4,33.7,3.2,41-10.8c7.8-14.8,3.4-32.1-10.8-41
				c-37.2-23.6-74.4-47.2-111.6-70.8c-4.9-3.1-9.8-6.2-14.7-9.3c-7.7-4.9-15.4-10-22.9-15.3c-4.5-3.2-9-6.5-13.5-9.8
				c-2-1.5-4-3.1-6-4.6c8.3,6.3-0.2-0.2-2.2-1.8c-17.4-13.9-33.9-28.8-49.5-44.6c-15.3-15.6-30.8-32-43.6-49.7
				c0.1,0.1,4.8,6.3,2,2.5c-1.2-1.6-2.4-3.1-3.6-4.7c-1.8-2.4-3.5-4.8-5.3-7.2c-3.5-4.8-6.9-9.6-10.2-14.5
				c-6.9-10.2-13.5-20.6-19.7-31.3c-12.5-21.3-23.5-43.4-33.1-66.1c1,2.4,2,4.8,3,7.2c-19.5-46.3-32.8-94.9-39.5-144.7
				c0.4,2.7,0.7,5.3,1.1,8c-4.3-32.4-5-64.8-5-97.3c0-31.6,0-63.2,0-94.8c0-8.6,0-17.1,0-25.7c-7.3,9.6-14.7,19.3-22,28.9
				c33.7-10.1,66.1-23.7,94.8-44.3c33.3-23.9,61.6-53.8,82.7-89c11.7-19.5,21-40.6,27.9-62.2c-9.6,7.3-19.3,14.7-28.9,22
				c13.6,0,27.2,0,40.8,0c32.6,0,65.3,0,97.9,0c39.3,0,78.6,0,117.9,0c34.1,0,68.2,0,102.3,0c16.5,0,33.1,0.5,49.6,0
				c0.2,0,0.5,0,0.7,0c-9.6-7.3-19.3-14.7-28.9-22C712,158.5,767.5,224,840,258.1c17.2,8.1,35,14.4,53.2,19.8
				c-7.3-9.6-14.7-19.3-22-28.9c0,22.4,0,44.8,0,67.2c0,24.9,0,49.8,0,74.6c0,25.4-1.7,50.8-5,76c0.4-2.7,0.7-5.3,1.1-8
				c-6.8,49.7-20.1,98.4-39.5,144.7c1-2.4,2-4.8,3-7.2c-17.1,40.4-38.8,78.8-64.8,114.3c-1.5,2-2.9,4-4.4,5.9c-1.4,1.9-7.2,9-0.7,1
				c-3.7,4.6-7.4,9.3-11.1,13.9c-7,8.4-14.2,16.6-21.6,24.6c-14.9,16-30.8,31.2-47.5,45.4c-4.2,3.6-8.5,7.1-12.8,10.5
				c-2,1.6-4,3.1-5.9,4.7c8.2-6.6-0.4,0.3-2.3,1.7c-8.9,6.7-18,13.1-27.3,19.2c-6,3.9-12,7.8-18.1,11.6
				c-21.8,13.8-43.6,27.6-65.4,41.5c-17.3,11-34.6,21.9-51.9,32.9c-13.2,8.4-19.8,27.1-10.8,41C494.6,977.9,513,984.4,527.1,975.4z" class="color000000 svgShape"/><path fill="#2d8086" d="M315.3,502.8c34.2,34.2,68.4,68.4,102.7,102.7c4.9,4.9,9.8,9.8,14.6,14.6c11.5,11.5,30.9,11.5,42.4,0
				c26.4-26.4,52.9-52.9,79.3-79.3c41.8-41.8,83.7-83.7,125.5-125.5c9.6-9.6,19.3-19.3,28.9-28.9c11.1-11.1,11.9-31.5,0-42.4
				c-12-11-30.6-11.9-42.4,0c-26.4,26.4-52.9,52.9-79.3,79.3c-41.8,41.8-83.7,83.7-125.5,125.5c-9.6,9.6-19.3,19.3-28.9,28.9
				c14.1,0,28.3,0,42.4,0c-34.2-34.2-68.4-68.4-102.7-102.7c-4.9-4.9-9.8-9.8-14.6-14.6c-11.1-11.1-31.5-11.9-42.4,0
				C304.3,472.3,303.4,490.9,315.3,502.8L315.3,502.8z" class="color000000 svgShape"/></svg>