<svg xmlns="http://www.w3.org/2000/svg" viewBox="0 0 32 32"><path fill="#2d8086" d="m30 13.2-3-.9c-.1-.4-.3-.8-.5-1.2l1.8-2.7c.3-.4.2-.9-.1-1.2L25 4c-.3-.3-.8-.4-1.1-.2l-2.8 1.5c-.4-.2-.8-.4-1.2-.5l-.6-3.2c-.1-.3-.5-.6-.9-.6h-4.6c-.4 0-.8.3-.9.7l-.9 3c-.4.1-.8.3-1.2.5L8.2 3.4c-.4-.3-.9-.2-1.2.1L3.8 6.7c-.3.3-.4.8-.2 1.2l1.5 2.8c-.1.3-.3.7-.5 1.1l-3.2.6c-.4.1-.8.5-.8.9v4.6c0 .4.3.8.7.9l3 .9c.1.4.3.8.5 1.2L3 23.6c-.3.4-.2.9.1 1.2L6.5 28c.2.2.4.3.7.3.2 0 .3 0 .5-.1l2.8-1.5c.4.2.8.4 1.2.5l.6 3.2c.1.4.5.8.9.8h4.6c.4 0 .8-.3.9-.7l.9-3c.4-.1.8-.3 1.2-.5l2.7 1.8c.2.1.3.2.5.2s.5-.1.7-.3l3.2-3.2c.3-.3.4-.8.2-1.1l-1.5-2.8c.2-.4.4-.8.5-1.2l3.2-.6c.4-.1.8-.5.8-.9v-4.6c-.4-.6-.7-1-1.1-1.1zm-1.2 4.7-1.5.3-1.3.2c-.1 0-.2.1-.3.1-.3 1.1-.7 2.1-1.4 3.1 0 .1.1.2.1.3l.7 1.3.7 1.2-2.2 2.2-1.2-.8-1.2-.8c-.1-.1-.2-.1-.3-.1-1 .6-2 1-3.1 1.2-.1.1-.1.2-.1.3l-.4 1.4-.4 1.4h-3.1l-.3-1.5-.3-1.4c0-.1-.1-.2-.1-.3-1.1-.3-2.1-.8-3.1-1.4-.1 0-.2.1-.3.1l-1.3.7-1.2.7L5 23.9l.8-1.2.8-1.2c.1-.1.1-.2.1-.3-.6-1-1-2-1.2-3.1.1-.1 0-.1-.1-.1L4 17.6l-1.4-.4v-3.1l1.5-.3 1.4-.3c.1 0 .2-.1.3-.1.3-1.1.7-2.1 1.4-3.1 0-.1-.1-.2-.1-.3l-.8-1.2-.7-1.2 2.2-2.2 1.2.8 1.2.8c.1.1.2.1.3.1 1-.6 2-1 3.1-1.2.1-.1.1-.2.1-.3l.4-1.4.4-1.4h3.1l.3 1.5.3 1.4c0 .1.1.2.1.3 1.1.3 2.1.7 3.1 1.4.1 0 .2-.1.3-.1l1.3-.7 1.2-.7 2.2 2.2-.8 1.2-.8 1.2c-.1.1-.1.2-.1.3.6 1 1 2 1.2 3.1 0 .1.1.1.1.1l1.4.4 1.4.4v3.1z" class="color000000 svgShape"/><path fill="#2d8086" d="M15.7 9.5c-3.6 0-6.5 2.9-6.5 6.5s2.9 6.5 6.5 6.5 6.5-2.9 6.5-6.5c.1-3.6-2.9-6.5-6.5-6.5zm0 11.2c-2.6 0-4.7-2.1-4.7-4.7s2.1-4.7 4.7-4.7 4.7 2.1 4.7 4.7-2.1 4.7-4.7 4.7z" class="color000000 svgShape"/></svg>