<svg xmlns="http://www.w3.org/2000/svg" data-name="Layer 1" viewBox="0 0 512 512"><path fill="#2d8086" d="M304.3 223a97 97 0 1 0-97-97A97.092 97.092 0 0 0 304.3 223zM261 120.2h16.8c-.3-1.7-.7-3.4-1.1-5.1a82.684 82.684 0 0 1-2.6-19 38.269 38.269 0 0 1 2.7-14.3 35.664 35.664 0 0 1 7.9-12.2 36.79 36.79 0 0 1 12.4-8.4 38.667 38.667 0 0 1 15.3-3c19.6 0 33 10.4 36.9 28.6a9.963 9.963 0 1 1-19.5 4.1c-1.2-5.9-4.3-12.7-17.3-12.7a20.565 20.565 0 0 0-7.6 1.4 17.952 17.952 0 0 0-5.8 3.9 15.385 15.385 0 0 0-3.6 5.7 18.006 18.006 0 0 0-1.3 6.9 64.09 64.09 0 0 0 2 14.3c.8 3.3 1.4 6.5 2 9.8h19.7a10 10 0 1 1 0 20H299.8c0 3.5-.1 7-.4 10.6v.3a53.908 53.908 0 0 1-3.6 15.5 45.735 45.735 0 0 1 23.5 4.9 25.169 25.169 0 0 0 19.2 1.7l6.3-1.9a10 10 0 1 1 5.9 19.1l-6.3 1.9a43.984 43.984 0 0 1-13.4 2 46.491 46.491 0 0 1-20.8-5 26.129 26.129 0 0 0-14.8-2.6l-17.8 2.1a9.787 9.787 0 0 1-9.8-4.9 10.02 10.02 0 0 1 .6-11l4.8-6.5a33.586 33.586 0 0 0 6.3-17v-.3q.3-4.5.3-9H261a9.95 9.95 0 1 1 0-19.9zM195.5 392.1a50.8 50.8 0 1 0 50.8 50.8A50.872 50.872 0 0 0 195.5 392.1zM409.4 392.1a50.8 50.8 0 1 0 50.8 50.8A50.872 50.872 0 0 0 409.4 392.1z" class="color000000 svgShape"/><path fill="#2d8086" d="M304.3,243A117.214,117.214,0,0,1,187.4,131.9H144.2L133.4,68.3a59.933,59.933,0,0,0-59.2-50h-17a10,10,0,0,0,0,20h17a39.774,39.774,0,0,1,39.4,33.3l40.1,236.3a59.933,59.933,0,0,0,59.2,50H441.1a10,10,0,0,0,0-20H213a39.774,39.774,0,0,1-39.4-33.3l-6.7-39.2H393.4a39.908,39.908,0,0,0,38.2-28l33.2-105.5H421.2A117.146,117.146,0,0,1,304.3,243Z" class="color000000 svgShape"/></svg>