<svg xmlns="http://www.w3.org/2000/svg" viewBox="0 0 80 80"><path fill="#2d8086" d="M64.16 20.49v8.34c-4.66.62-8.28 4.62-8.28 9.46v2.91c-5.26-.93-10.59-1.4-15.88-1.4s-10.62.47-15.88 1.4v-2.91c0-4.84-3.62-8.84-8.28-9.46v-8.34c0-3.29 2.67-5.96 5.95-5.96h36.42c3.28 0 5.95 2.67 5.95 5.96z" class="color000000 svgShape"/><path fill="#2d8086" d="M73 38.29c0 2.91-1.69 5.56-4.28 6.81v10.57a5.56 5.56 0 0 1-5.56 5.56h-1.27v3.24c0 .55-.45 1-1 1h-5.85c-.55 0-1-.45-1-1v-3.24H25.96v3.24c0 .55-.45 1-1 1h-5.85c-.55 0-1-.45-1-1v-3.24H17.1c-3.06 0-5.56-2.49-5.56-5.56V45.23A7.565 7.565 0 0 1 7 38.29c0-4.16 3.39-7.55 7.56-7.55s7.56 3.39 7.56 7.55v5.33a88.62 88.62 0 0 1 35.76 0v-5.33c0-4.16 3.39-7.55 7.56-7.55S73 34.13 73 38.29z" class="color000000 svgShape"/></svg>