<svg xmlns="http://www.w3.org/2000/svg" enable-background="new 0 0 110 110" viewBox="0 0 110 110"><path fill="#f3f3f3" d="M102.5093918,39.5628815c-1.7999268,7.25-6.4699707,12.2700195-12.2299805,16.5700073
			c-5.4299316,4.0499878-10.8898926,8.0599976-16.9499512,11.0899658
			c-4.3699951,2.1900024-8.9399414,4.0300293-14.0000038,3.9200439c-4.1999512-0.0900269-8.4399414,0.3699951-12.5700684-0.8099976
			c-0.4699707-0.1400146-1.5698242-0.6400146-1.5698242-0.6400146l-6.6101074-2.2999878
			c0,0-5.9199219-1.7800293-8.7800293-2.9100342c-4.5-1.7799683-9.0499268-3.5499878-12.8399658-6.6699829
			c-3.9799805-3.289978-7.4899902-6.9500122-9.1400146-12.039978c-0.1899414-0.5800171-0.3399658-1.1700439-0.4499512-1.7700195
			c-0.1700439-0.8500366-0.2600098-1.7200317-0.2900391-2.5900269c-0.2199707-6.8299561,3.6600342-13.9899883,9.6500244-17.209959
			c10.3399658-5.5599976,20.5799561-11.3500366,31.5799561-15.5500488
			c5.630127-2.1499639,11.5500488-2.5699468,17.5400429-1.7899785c0.2800293,0.039978,0.6599121,0.0700073,1.0400391,0.0999756
			c1.2900391,0.1000366,2.5599365,0.3500366,3.7800293,0.7400513l5.6599121,1.8299565c0,0,6.2700195,2.3500366,9.4599609,3.3900146
			c1.1700439,0.3800049,3.4699707,1.2999878,3.4699707,1.2999878l0.0800781,0.0400391
			c1.1099854,0.5,2.1099854,1.1999512,3.0200195,2.0100098c0.1899414,0.1799927,0.3999023,0.3399658,0.5899658,0.4699707
			c1.2000732,0.7800293,5.7900391,4.6799927,6.3800049,6.1300049c0.1799316,0.4199829,0.3601074,0.8200073,0.5400391,1.1300049
			c0.3999023,0.6799927,0.8999023,1.75,1.3100586,2.6499634c0.3999023,0.9000244,0.6999512,1.6300049,0.6999512,1.6300049
			c0.5799561,1.1400146,0.9099121,2.3900146,0.9699707,3.6799927
			C102.9694748,34.1128693,103.0294113,37.4828644,102.5093918,39.5628815z" class="colorf5f5f5 svgShape"/><path fill="#fff" d="M85.201622,20.4292393c-0.0132904-1.2518291-1.030983-2.2626972-2.2859497-2.2626972
			c-0.2981644,0-0.5845718,0.058857-0.8474197,0.1647663c-0.4158554-1.5260963-1.8085785-2.6520691-3.468071-2.6520691
			c-1.7811356,0-3.2601852,1.2946663-3.5426407,2.989481c-0.3883896-0.3138733-0.8866425-0.5021782-1.4280396-0.5021782
			c-1.2549667,0-2.2726593,1.0108681-2.2859497,2.2626972H85.201622z" class="colorffffff svgShape"/><path fill="#fff" d="M74.5451279,18.2056332V90.879303c0,1.3952866-1.1311035,2.5263901-2.5263901,2.5263901H16.8255234
			c-1.3952885,0-2.5263939-1.1311035-2.5263939-2.5263901V18.2211189c0-1.403841,1.1380386-2.5418797,2.5418797-2.5418797
			h55.1777267C73.4140244,15.6792393,74.5451279,16.8103447,74.5451279,18.2056332z" class="colorffffff svgShape"/><path fill="#2d8086" d="M55.871273,28.8598576H32.721035c-0.7762737,0-1.4055653-0.6292915-1.4055653-1.4055634v-3.5426025
			c0-0.7762718,0.6292915-1.4055653,1.4055653-1.4055653h23.150238c0.7762718,0,1.4055634,0.6292934,1.4055634,1.4055653v3.5426025
			C57.2768364,28.230566,56.6475449,28.8598576,55.871273,28.8598576z" class="color0097ec svgShape"/><path fill="#2d8086" d="M64.7565384 37.078907H24.0871868c-.558506 0-1.0104427-.4519348-1.0104427-1.0104408s.4519367-1.0104446 1.0104427-1.0104446h40.6693497c.5585098 0 1.0104446.4519386 1.0104446 1.0104446S65.3150482 37.078907 64.7565384 37.078907zM64.7565384 46.2676277H24.0871868c-.558506 0-1.0104427-.4519386-1.0104427-1.0104446s.4519367-1.0104446 1.0104427-1.0104446h40.6693497c.5585098 0 1.0104446.4519386 1.0104446 1.0104446S65.3150482 46.2676277 64.7565384 46.2676277zM64.7565384 55.4553566H24.0871868c-.558506 0-1.0104427-.4519348-1.0104427-1.0104408s.4519367-1.0104446 1.0104427-1.0104446h40.6693497c.5585098 0 1.0104446.4519386 1.0104446 1.0104446S65.3150482 55.4553566 64.7565384 55.4553566zM64.7565384 64.6440735H24.0871868c-.558506 0-1.0104427-.4519348-1.0104427-1.0104408s.4519367-1.0104446 1.0104427-1.0104446h40.6693497c.5585098 0 1.0104446.4519386 1.0104446 1.0104446S65.3150482 64.6440735 64.7565384 64.6440735z" class="colore6e6e6 svgShape"/><path fill="#fff" d="M34.2821922,102.1309509l-4.7490234-3.6788025l-4.3676853,3.6123886
			c-0.4117508,0.3405457-1.0340137,0.0476913-1.0340137-0.4866486V86.6167068H35.300457v15.0149918
			C35.300457,102.1566467,34.6971931,102.4524231,34.2821922,102.1309509z" class="colorf15c4f svgShape"/><path fill="#f9f9f9" d="M35.3016396,86.6160278v15.0101929c0,0.5330276-0.609108,0.8266602-1.0224342,0.5003662l-4.742342-3.6764145
			l-4.3724918,3.6111526c-0.4133301,0.3480759-1.0333252,0.0543747-1.0333252-0.4785843v-4.3181229h0.0000038
			c2.0287876-1.6726456,4.9457169-1.7164307,7.0237961-0.1054306l1.1882935,0.9212036
			c0.4133301,0.3154068,1.022438,0.0217056,1.022438-0.5003662V86.6160278H35.3016396z" class="coloref4536 svgShape"/><path fill="#2d8086" d="M40.4860611,79.2257538c0,0.7752762-1.3476524,1.3887253-1.512558,2.1140747
			c-0.1702499,0.7488632,0.7737122,1.885025,0.4477272,2.5606384c-0.3313522,0.6867371-1.8114319,0.6547699-2.282486,1.2446442
			c-0.4733238,0.5927048-0.1148338,2.0281296-0.7075806,2.5014038c-0.5898438,0.4709549-1.9089851-0.196167-2.5956688,0.1351089
			c-0.6755638,0.3259048-0.9740372,1.7762375-1.7228203,1.9464417c-0.7252541,0.164856-1.6215496-1.0086746-2.3967094-1.0086746
			c-0.7752762,0-1.6717014,1.1735001-2.3970547,1.0085983c-0.7488594-0.1702499-1.0473499-1.6206207-1.7229671-1.9466019
			c-0.686739-0.3313522-2.0059967,0.33564-2.5958672-0.1354218c-0.5927048-0.47332-0.2341003-1.9087143-0.7073746-2.5014648
			c-0.4709568-0.5898438-1.9509964-0.5579071-2.2822704-1.2445908c-0.3259106-0.67556,0.6181297-1.8115997,0.4479256-2.560379
			c-0.1648579-0.7252579-1.5124893-1.3386154-1.5124893-2.1137772c0-0.7752762,1.3476524-1.3887253,1.512558-2.1140823
			c0.170248-0.7488556-0.7737103-1.8850174-0.4477253-2.5606384c0.3313503-0.6867371,1.81143-0.6547699,2.282486-1.2446365
			c0.47332-0.5927048,0.1148319-2.0281372,0.7075787-2.5014114c0.5898418-0.4709549,1.9089851,0.1961746,2.5956688-0.1351013
			c0.6755619-0.3259125,0.9740391-1.7762375,1.7228203-1.9464417c0.7252541-0.1648636,1.6215496,1.008667,2.3967113,1.008667
			c0.7752743,0,1.6716995-1.1735001,2.3970528-1.0085907c0.7488594,0.1702499,1.047348,1.6206131,1.7229691,1.9466019
			c0.6867371,0.3313522,2.0059967-0.33564,2.5958633,0.1354141c0.5927086,0.4733276,0.2341042,1.9087219,0.7073784,2.5014648
			c0.4709549,0.5898438,1.9509926,0.5579071,2.2822685,1.2445908c0.3259087,0.6755676-0.6181297,1.8116074-0.4479256,2.5603867
			C39.1384315,77.8372269,40.4860611,78.450592,40.4860611,79.2257538z" class="color7bbe5e svgShape"/><path fill="#fff" d="M40.4899712,79.2305984c0,0.7722855-1.348732,1.3813934-1.5119133,2.1101303
			c-0.1739998,0.7505112,0.7722893,1.881691,0.4459953,2.5560608c-0.3371849,0.685257-1.8164368,0.6635437-2.2842026,1.2508774
			c-0.4785881,0.5873337-0.1196327,2.0231018-0.7069626,2.5016861c-0.5873985,0.4677048-1.9143562-0.1957779-2.5996094,0.1305161
			c-0.674366,0.3263016-0.9680672,1.7729568-1.7185783,1.9470215c-0.7287388,0.1631165-1.6206589-1.0116119-2.4037685-1.0116119
			c-0.7722874,0-1.6642056,1.1747284-2.3929443,1.0116119c-0.7505131-0.1740646-1.0442123-1.6207199-1.7185783-1.9470215
			c-0.6852531-0.3262939-2.0122108,0.3371887-2.5996094-0.1305161c-0.5873318-0.4785843-0.2283745-1.9143524-0.7069626-2.5016861
			c-0.0326633-0.0326614-0.0652599-0.076149-0.0979214-0.1088104c0.2828102-0.0217056,0.543848-0.0108185,0.7505131,0.0870361
			c0.674366,0.3262939,0.9680653,1.7838364,1.7185783,1.9470139c0.7287369,0.1740036,1.620657-1.0007248,2.4038315-1.0007248
			c0.7722225,0,1.6641407,1.1747284,2.3928795,1.0007248c0.7505131-0.1631775,1.0442123-1.6207199,1.7185783-1.9470139
			c0.6961403-0.3262939,2.0122089,0.3371811,2.5996075-0.1305237c0.5982208-0.4785843,0.2392616-1.9034653,0.7069626-2.5016861
			c0.4677696-0.5873337,1.9579086-0.5547333,2.2842026-1.2399902c0.3262978-0.6852493-0.6199951-1.8164291-0.4459915-2.5669479
			c0.1631813-0.7287369,1.5119133-1.3378448,1.5119133-2.1101303s-1.348732-1.3922806-1.5119133-2.1210175
			c-0.1631165-0.685257,0.6417694-1.7185822,0.5003624-2.4037704c0.0434875,0.4785233,0.0870361,0.9680023,0.3154106,1.2508087
			c0.4677658,0.5982208,1.9470177,0.5656281,2.2842026,1.2508774c0.3262939,0.6743698-0.6199951,1.8055496-0.4459953,2.5560608
			C39.1412392,77.8383102,40.4899712,78.4474182,40.4899712,79.2305984z" class="color41a700 svgShape"/><circle cx="29.716" cy="79.226" r="5.001" fill="#fff" class="colorffffff svgShape"/><path fill="#2d8086" d="M83.8339157 54.8921165L86.9792786 39.61446c.4201508-2.040741 1.6225357-3.7146492 3.23452-4.7665939 1.6031494-1.0653496 3.6158905-1.5087318 5.6566315-1.0885811 4.0596542.8358002 6.6821213 4.8182259 5.8440628 8.8888626l-3.1453629 15.2776566L83.8339157 54.8921165zM78.9421692 72.3597488l-.3041534 1.4773254c-.1544037.7499695.3283997 1.4831161 1.0783691 1.6375198l14.5050888 2.9863052c.7499695.1544037 1.4831161-.3283997 1.6375198-1.0783691l.3041534-1.4773254c.1544037-.7499695-.3283997-1.4831085-1.0783768-1.6375198L80.579689 71.2813797C79.8297119 71.126976 79.0965729 71.6097794 78.9421692 72.3597488z" class="colorfbb81b svgShape"/><path fill="#fff" d="M81.6939926,102.2592087c-0.4160233-4.5167236-1.2768631-9.4402161-2.9986572-12.734375
			c-1.355423-2.5932007-1.0940781-5.7380447,0.5162582-8.1811371l3.466629-5.2593231l8.4421692,1.7380753l1.1105499,6.1951599
			c0.5168915,2.8835068-0.4865036,5.8794937-2.7593307,7.7277451
			C86.5868378,94.0912552,83.8536911,98.2737274,81.6939926,102.2592087" class="colordadde0 svgShape"/><rect width="16.714" height="11.921" x="81.159" y="58.633" fill="#fbfefe" class="colorececec svgShape" transform="rotate(-78.366 89.517 64.593)"/><path fill="#fff" d="M83.8339157 54.8921165L86.9792786 39.61446c.4201508-2.040741 1.6225357-3.7146492 3.23452-4.7665939 1.6031494-1.0653496 3.6158905-1.5087318 5.6566315-1.0885811 4.0596542.8358002 6.6821213 4.8182259 5.8440628 8.8888626l-3.1453629 15.2776566L83.8339157 54.8921165zM78.9421692 72.3597488l-.3041534 1.4773254c-.1544037.7499695.3283997 1.4831161 1.0783691 1.6375198l14.5050888 2.9863052c.7499695.1544037 1.4831161-.3283997 1.6375198-1.0783691l.3041534-1.4773254c.1544037-.7499695-.3283997-1.4831085-1.0783768-1.6375198L80.579689 71.2813797C79.8297119 71.126976 79.0965729 71.6097794 78.9421692 72.3597488z" class="color5aa7f5 svgShape"/><path fill="#f1f1f1" d="M81.6939926,102.2592087c-0.4160233-4.5167236-1.2768631-9.4402161-2.9986572-12.734375
			c-1.355423-2.5932007-1.0940781-5.7380447,0.5162582-8.1811371l3.466629-5.2593231l8.4421692,1.7380753l1.1105499,6.1951599
			c0.5168915,2.8835068-0.4865036,5.8794937-2.7593307,7.7277451
			C86.5868378,94.0912552,83.8536911,98.2737274,81.6939926,102.2592087" class="colorf0f1f2 svgShape"/><rect width="16.714" height="11.921" x="81.159" y="58.633" fill="#f1f1f1" class="colorf0f1f2 svgShape" transform="rotate(-78.366 89.517 64.593)"/><path fill="#2d8086" d="M101.7124481 42.6526909l-3.1443024 15.2725105-4.8330688-.9950333 3.1443024-15.2725105c.6640472-3.2254181-.8358154-6.3978882-3.5121384-7.9776573.809494-.1197281 1.6528015-.0946083 2.5075226.0813599C99.9345322 34.597187 102.5524521 38.5726166 101.7124481 42.6526909zM96.160347 75.9054642l-.3037338 1.4753113c-.1550293.7529907-.8810577 1.2398605-1.6339874 1.0848465l-4.8330688-.9950333c.7529297.155014 1.4789581-.3318558 1.6339874-1.0848465l.3037338-1.4753113c.148735-.722435-.2792435-1.4257278-.9830627-1.6130295l-1.5059204-.3100433.0020981-.0101776 6.2473907 1.2862091C95.8407135 74.4184036 96.3153763 75.1524734 96.160347 75.9054642z" class="color0097ec svgShape"/><path fill="#d8d8d8" d="M89.4739532,91.7426529c-2.8899231,2.3429489-5.6191788,6.5325851-7.7768478,10.5217361
			c-0.2169495-2.3461838-0.5494766-4.801033-1.0683823-7.0715637c1.2730331-1.7530441,2.6245193-3.3202591,4.0121613-4.4452057
			c2.2678223-1.8452377,3.2769241-4.8405685,2.7574158-7.7263336l-1.1120682-6.1896133l4.8330688,0.9950333l1.1120682,6.1896133
			C92.7508774,86.9020844,91.7417831,89.8974152,89.4739532,91.7426529z" class="colord8d8d8 svgShape"/><rect width="16.715" height="4.934" x="84.583" y="62.832" fill="#d8d8d8" class="colord8d8d8 svgShape" transform="rotate(-78.366 92.94 65.3)"/><path fill="#23cbd7" d="M90.3442154,73.2974014l-1.5059204-0.3100433l0.0020981-0.0101776l1.4143219,0.2911758
			C90.2852707,73.2746506,90.3157578,73.2809296,90.3442154,73.2974014z" class="colord7a123 svgShape"/><path fill="#fff" d="M82.6802063,85.1431198c0.2774582-1.3476639,1.5879974-2.2107086,2.9356689-1.9332504
			c1.3388519,0.2756424,2.2106018,1.5879822,1.9331436,2.9356461s-1.5967026,2.2089157-2.9355621,1.9332733
			C83.2657928,87.8013306,82.4027481,86.4907913,82.6802063,85.1431198z" class="colorffffff svgShape"/><path fill="#09474b" d="M52.4899902,85.1222839c0.585144,0.107605,1.241333,0.2289429,1.9330444,0.2289429
		c0.0533447,0,0.1066284-0.0009766,0.1608887-0.0019531c0.5703125-0.0167847,1.6330566-0.1450806,2.3366089-0.8239746
		c0.7894287-0.7578125,0.6828613-1.7504883,0.6374512-2.1767578c-0.0631104-0.5733032-0.1588745-1.1486206-0.2861328-1.7061157
		l-0.0690918-0.2930908c-0.1450195-0.6157227-0.2713623-1.1485596-0.1342163-1.5758667
		c0.107605-0.3394165,0.6325684-0.8466187,1.4150391-0.8565063c0.1193848-0.0118408,0.2269897,0.013855,0.2832031,0.0276489
		c0.0049438,0.0137939,0.0098877,0.0305786,0.0148315,0.0513306c0.2022705,0.749939,0.1469727,1.5373535-0.1578979,2.2764282
		c-0.0878296,0.2111816-0.1934204,0.4193726-0.2990112,0.6286011c-0.267395,0.5318604-0.5703125,1.1347656-0.6512451,1.8215332
		c-0.0670776,0.562439,0.1480103,0.923584,0.3364868,1.1239014c0.3059082,0.3256226,0.7153931,0.5012817,1.1209717,0.4736938
		c0.9127197-0.0552979,2.546814-0.699646,3.6884766-1.4673462c0.3404541,0.569397,0.8683472,1.1219482,1.6469116,1.1870728
		c0.5545654,0.0394897,1.0440063-0.3690186,1.0903931-0.9245605c0.043396-0.526001-0.3256226-0.9916992-0.836792-1.0785522
		c-0.0966797-0.0907593-0.2910767-0.3828735-0.4282227-0.822937c-0.1312866-0.4204102-0.4776001-0.7401123-0.9049072-0.8338623
		c-0.4282227-0.0986328-0.8831177,0.050354-1.1850586,0.3828735c-0.3789063,0.4213867-1.3577881,0.9502563-2.1807861,1.2660522
		c0.0355225-0.0730591,0.0720825-0.1460571,0.1095581-0.2200928c0.1273193-0.2536011,0.2545776-0.5081787,0.3601685-0.7647095
		c0.4776001-1.154541,0.5614624-2.3899536,0.2427368-3.5730591c-0.0592041-0.2200317-0.2171021-0.8062134-0.8051758-1.197937
		c-0.4815674-0.3197021-1.0469971-0.3690796-1.4692993-0.3769531c-1.5097656,0.0187378-2.9040527,0.9710083-3.3155518,2.2626343
		c-0.3078613,0.9620972-0.0947266,1.8620605,0.09375,2.6563721l0.0641479,0.2753296
		c0.1095581,0.4835205,0.1934204,0.980835,0.2476807,1.4751587c0.0315552,0.2940674,0.0227051,0.4529419-0.0296021,0.5032959
		c-0.0957031,0.0927124-0.4499512,0.2446899-0.9916992,0.2595215c-0.5427246,0.0197144-1.1140137-0.0908203-1.6705933-0.1934204
		c-0.5565186-0.1036377-1.0765381,0.2624512-1.1771851,0.8101196C51.5782471,84.4947205,51.9413452,85.021637,52.4899902,85.1222839
		z" class="color092d4b svgShape"/><path fill="#09474b" d="M13.1692505 103.500885h89.8300171c.5499878 0 1-.4500122 1-1 0-.5500488-.4500122-1-1-1H83.2692261c2.3600464-4.1500244 4.710022-7.25 6.8300171-8.9800415 2.5200195-2.039978 3.710022-5.3699951 3.1199951-8.6799927l-.8499756-4.7399902 1.6499634.3400269c.1600342.0299683.3300171.0499878.4900513.0499878.4599609 0 .9099731-.1400146 1.2999878-.3900146.539978-.3499756.8999634-.8900146 1.0299683-1.5200195l.2999878-1.4699707c.269989-1.3083572-.557518-2.548996-1.8499756-2.8200073l-.4400024-.0900269c3.2579193-15.8067322 2.9491043-14.3084526 2.9700317-14.4099731l.5499878.1099854c.0700073.0200195.1300049.0300293.2000122.0300293.1900024 0 .3899536-.0599976.5499878-.1700439.2199707-.1499634.3800049-.3699951.4299927-.6300049l3.1400146-15.2799683c.8800049-4.2700195-1.6100464-8.4700317-5.6500244-9.8099976l.1900024-.9400024c.1199951-.5399761-.2299805-1.0700054-.7700195-1.1799908-.539978-.1099854-1.0700073.2399902-1.1900024.7799683l-.1900024.9400005c-4.1580658-.3700562-8.1816559 2.3953438-9.0799561 6.7700195l-3.1400146 15.2800293c-.1199951.539978.2299805 1.0699463.7700195 1.1799927l.5499878.1099854-2.960022 14.4099731-.4400024-.0899658c-1.2799683-.2600098-2.5499878.5700073-2.8200073 1.8599854l-.2999878 1.4699707c-.1300049.6300049-.0100098 1.2600098.3400269 1.8000488.3499756.5299683.8899536.8899536 1.5199585 1.0199585l1.5100098.3200073-2.6499634 4.0200195c-1.8500366 2.8099976-2.0700073 6.3300171-.5700073 9.2000122 1.3099976 2.5100098 2.2699585 6.4899902 2.7999878 11.5100098H36.2992554v-7.1000366h35.7199707c1.9500122 0 3.5300293-1.5800171 3.5300293-3.5200195V18.2008381c0-1.9400024-1.5800171-3.5199585-3.5300293-3.5199585H16.8392334c-1.9500122 0-3.539978 1.5899658-3.539978 3.539978v72.6599731c0 1.9400024 1.5800171 3.5200195 3.5299683 3.5200195h6.3000488v7.1000366h-9.960022c-.5499878 0-1 .4499512-1 1C12.1692505 103.0508728 12.6192627 103.500885 13.1692505 103.500885zM87.9592285 39.8108826c.6733017-3.2892532 3.6711655-5.3662033 6.710022-5.1900024l-3.4000244 16.5299683c-.1254196.6158066.3449631 1.2000122.9800415 1.2000122.4699707 0 .8800049-.3200073.9799805-.7999878l3.4000244-16.5300293c2.9599609 1.1099854 4.7599487 4.2300415 4.1099854 7.4299927l-2.9500122 14.2900391-.539978-.1100464h-.0100098l-11.6799927-2.3999634-.5400391-.1199951L87.9592285 39.8108826zM86.1392212 56.3908386l9.7200317 2L92.8892212 72.790863l-9.7099609-2L86.1392212 56.3908386zM79.9192505 74.4908752c-.1400146-.0200195-.210022-.1100464-.25-.1600342-.0300293-.0499878-.0800171-.1599731-.0499878-.289978l.2999878-1.4799805c.0499878-.210022.2399902-.3500366.460022-.3000488 3.6248627.7481689 11.4650192 2.3663635 14.5 2.9900513.2099609.039978.3499756.2399902.2999878.4499512l-.2999878 1.4800415c-.0400391.2099609-.25.3499756-.460022.2999878C78.3907471 74.175148 81.9072266 74.9007263 79.9192505 74.4908752zM79.5792236 89.0608826c-1.1599731-2.2200317-.9799805-4.9700317.4700317-7.1700439l3.0899658-4.6900024 7.1200562 1.460022.9899902 5.5300293c.4599609 2.5999756-.460022 5.1899414-2.4100342 6.7799683-1.6199951 1.3099976-3.289978 3.25-4.9899902 5.7600098l1.5700073-7.6300049c1.5-.1300049 2.789978-1.210022 3.1099854-2.75.1900024-.9199829.0100098-1.8499756-.5100098-2.6300049-1.0648651-1.6079407-3.2295837-2.0433807-4.8200073-.9899902-.7799683.5100098-1.3099976 1.2999878-1.5 2.210022-.3199463 1.539978.4500122 3.039978 1.7700195 3.7599487l-1.5800171 7.6500244C81.3192749 93.3508606 80.5492554 90.9108582 79.5792236 89.0608826zM83.6592407 85.3408508c.0800171-.3900146.3099976-.7199707.6400146-.9400024.2399902-.1599731.5200195-.2399902.8099976-.2399902.0999756 0 .2000122.0100098.3099976.0300293.8322754.1751175 1.3087769.9756317 1.1500244 1.75-.1700439.8099976-.9500122 1.3199463-1.75 1.1599731C84.0092773 86.9308777 83.4992676 86.1508484 83.6592407 85.3408508zM27.4192505 101.500885l2.1300049-1.7700195 2.2799683 1.7700195H27.4192505zM34.2992554 100.8808289l-4.1600342-3.2199707c-.3699951-.289978-.8899536-.2800293-1.25.0200195l-3.7599487 3.1199951V88.6608582c.0899658.0700073.2699585.3800049.3800049.5700073.3399658.5700073.7699585 1.289978 1.5899658 1.4699707.7999878.1799927 1.4799805-.2699585 2.0200195-.6300049.1900024-.1199951.5-.3299561.5700073-.3499756.1199951.0200195.4299927.2299805.6199951.3499756.4599609.3099976 1.0100098.6700439 1.6499634.6700439.1199951 0 .25-.0100098.3800049-.0400391.8200073-.1799927 1.2399902-.8999634 1.5800171-1.4699707.1099854-.1900024.289978-.5.3200073-.539978h.0599976V100.8808289zM35.8392334 86.250885c-.0100098.1699829-.0299683.4099731-.0700073.5699463-.1499634 0-.3999634-.039978-.5599976-.0599976-.5700073-.0799561-1.2199707-.1699829-1.8099976.1199951-.5799561.2800293-.9099731.8400269-1.2000122 1.3300171-.0999756.1600342-.2399902.4000244-.289978.5-.1400146-.0700073-.3499756-.2099609-.4899902-.2999878-.4899902-.3300171-1.039978-.6900024-1.7000122-.6900024-.9239407 0-1.6352673.6920395-2.1699829.9799805-.1000366-.1300049-.2299805-.3499756-.3099976-.4899902-.2999878-.4899902-.6199951-1.0499878-1.210022-1.3300171-.5899658-.289978-1.2399902-.1999512-1.8099976-.1199951-.1599731.0200195-.3999634.0599976-.5599976.0599976-.0299683-.1599731-.0599976-.3999634-.0700073-.5599976-.0499878-.5799561-.1099854-1.2299805-.5199585-1.7399902-.4000244-.5100098-1.0200195-.7099609-1.5700073-.8800049-.1500244-.0499878-.3900146-.1300049-.5400391-.1999512.0400391-.1500244.1300049-.3800049.1900024-.5300293.2000122-.539978.4299927-1.1500244.2800293-1.789978-.1400146-.6300049-.6099854-1.0800171-1.0200195-1.4700317-.1199951-.1199951-.3200073-.2999878-.4199829-.4299927.0999756-.1199951.2999878-.2999878.4199829-.4199829.4100342-.3900146.8800049-.8400269 1.0300293-1.4700317.1399536-.6399536-.0900269-1.2600098-.2900391-1.7999878-.0599976-.1500244-.1499634-.3699951-.1900024-.5200195.1500244-.0699463.3900146-.1499634.5400391-.1999512.5499878-.1700439 1.1699829-.3699951 1.5700073-.8800049.4099731-.5100098.4699707-1.1600342.5199585-1.7300415.0100098-.1699829.0400391-.4099731.0700073-.5700073.1600342 0 .4000244.0400391.5599976.0600586.5700073.0799561 1.2200317.1699829 1.8099976-.1200562.5900269-.2799683.9199829-.8399658 1.210022-1.3299561.0899658-.1600342.2299805-.4000244.2799683-.5.1400146.0700073.3500366.2099609.5.3099976.4800415.3200073 1.0300293.6799927 1.7000122.6799927.6600342 0 1.210022-.3599854 1.7000122-.6799927.1400146-.1000366.3300171-.2300415.4699707-.2999878.0900269.1299438.2200317.3499756.3099976.4899902.2900391.4899902.6200562 1.0499878 1.2000122 1.3299561.6000366.2900391 1.2399902.2000122 1.8099976.1200562.1600342-.0200195.4100342-.0600586.5599976-.0600586.0400391.1600342.0599976.4000244.0700073.5700073.0499878.5700073.1099854 1.2200317.5200195 1.7300415.4099731.5100098 1.0200195.7099609 1.5700073.8800049.1599731.0499878.3900146.1300049.539978.1999512-.039978.1500244-.1199951.3699951-.1799927.5300293-.210022.539978-.4400024 1.1500244-.289978 1.789978.1399536.6300049.6099854 1.0800171 1.0199585 1.4700317.1300049.1199951.3200073.2999878.4200439.4199829-.1000366.1300049-.2900391.3099976-.4200439.4299927-.4099731.3900146-.8800049.8400269-1.0199585 1.4700317-.1500244.6399536.0799561 1.2599487.289978 1.7999878.0599976.1499634.1400146.3699951.1799927.5200195-.1499634.0699463-.3800049.1499634-.539978.1999512-.5400391.1700439-1.1600342.3699951-1.5700073.8800049C35.9492188 85.0308533 35.8892212 85.6808777 35.8392334 86.250885zM16.8292236 92.4008484c-.8399658 0-1.5299683-.6799927-1.5299683-1.5200195V18.2208576c0-.8499756.6900024-1.539978 1.539978-1.539978h55.1799927c.8400269 0 1.5300293.6799927 1.5300293 1.5199585v72.6799927c0 .8400269-.6900024 1.5200195-1.5300293 1.5200195H36.2992554v-3.6300049c.2600098-.0499878.5200195-.1499634.7600098-.3399658.6499634-.5200195.7199707-1.3400269.7799683-2 .0100098-.2200317.0499878-.5800171.0599976-.6400146.0900269-.0700073.4299927-.1799927.6400146-.25.6300049-.2000122 1.4199829-.4500122 1.7800293-1.210022.3599854-.7399902.0699463-1.5100098-.1600342-2.1199951-.0800171-.2099609-.210022-.5599976-.2199707-.6099854.0499878-.1099854.289978-.3400269.4599609-.5.4800415-.460022 1.0900269-1.0300293 1.0900269-1.8800049 0-.8400269-.6099854-1.4199829-1.0900269-1.8800049-.1699829-.1499634-.4099731-.3800049-.4500122-.4199829 0-.1199951.1300049-.4700317.210022-.6799927.2299805-.6100464.5200195-1.3800049.1600342-2.1199951-.3600464-.7600098-1.1500244-1.0100098-1.7800293-1.210022-.210022-.0700073-.5499878-.1799927-.5999756-.2000122-.0500488-.1099854-.0800171-.4699707-.1000366-.6900024-.0599976-.6599731-.1300049-1.4799805-.7799683-2-.6500244-.5100098-1.4700317-.3999634-2.1199951-.3099976-.2200317.0300293-.5800171.0800171-.6400146.0800171-.0900269-.0700073-.2700195-.3800049-.3800049-.5700073-.3400269-.5700073-.7600098-1.289978-1.5800171-1.4699707-.7999878-.1900024-1.4799805.2699585-2.0299683.6299438-.1900024.1200562-.5.3300171-.5700073.3500366-.1199951-.0200195-.4299927-.2299805-.6199951-.3500366-.5400391-.3599854-1.2200317-.8099976-2.0200195-.6299438-.8200073.1799927-1.25.8999634-1.5899658 1.4699707-.1000366.1900024-.2900391.5-.3200073.539978-.1199951.0300293-.4800415-.0199585-.7000122-.0499878-.6500244-.0899658-1.460022-.2099609-2.1099854.3099976-.6500244.5200195-.7300415 1.3400269-.7800293 2-.0200195.2200317-.0499878.5800171-.0700073.6400146-.0899658.0700073-.4299927.1799927-.6400146.25-.6299438.2000122-1.4099731.4500122-1.7799683 1.210022-.3599854.7399902-.0700073 1.5099487.1599731 2.1199951.0800171.2099609.210022.5599976.2300415.6099854-.0500488.1099854-.3000488.3400269-.460022.4899902-.4899902.460022-1.0900269 1.039978-1.0900269 1.8800049 0 .8499756.6000366 1.4199829 1.0900269 1.8800049.1599731.1599731.4099731.3900146.4400024.4299927 0 .1199951-.1300049.4700317-.210022.6799927-.2299805.6099854-.5199585 1.3800049-.1599731 2.1199951.3599854.7600098 1.1500244 1.0100098 1.7799683 1.210022.210022.0700073.5500488.1799927.6000366.2000122.0599976.1099854.0899658.4699707.1099854.6900024.0499878.6599731.1300049 1.4799805.7800293 2 .2299805.1799927.4899902.289978.75.3399658v3.6300049H16.8292236zM7.0007324 103.499115h3.0654297c.5527344 0 1-.4472656 1-1s-.4472656-1-1-1H7.0007324c-.5527344 0-1 .4472656-1 1S6.447998 103.499115 7.0007324 103.499115z" class="color092d4b svgShape"/></svg>