<svg xmlns="http://www.w3.org/2000/svg" enable-background="new 0 0 64 64" viewBox="0 0 64 64"><path fill="#2d8086" d="M62.4,5.9h-0.2c-0.9,0-1.6,0.7-1.6,1.6V32c0,0.1,0.1,0.2,0.1,0.3s0,0.2-0.1,0.3v6.1c0,0.1,0.1,0.2,0.1,0.3s0,0.2-0.1,0.3
		V52c0,0.1,0.1,0.2,0.1,0.3s0,0.2-0.1,0.3V58H64V7.5C64,6.6,63.3,5.9,62.4,5.9z M5.6,40.2v11.2h52.9V40.2H5.6z M34.7,46.8h-7.6
		c-0.6,0-1.1-0.5-1.1-1.1s0.5-1.1,1.1-1.1h7.6c0.6,0,1.1,0.5,1.1,1.1C35.7,46.4,35.3,46.8,34.7,46.8z M3.4,7.5
		c0-0.9-0.7-1.6-1.6-1.6H1.6C0.7,5.9,0,6.6,0,7.5v50.6h3.4v-5.4c0-0.1-0.1-0.2-0.1-0.3s0-0.2,0.1-0.3V39.4c0-0.1-0.1-0.2-0.1-0.3
		s0-0.2,0.1-0.3v-6.1c0-0.1-0.1-0.2-0.1-0.3s0-0.2,0.1-0.3V7.5z M5.6,33.4V38h52.9v-4.6H5.6z M53.2,22.2H5.6v9.1h52.9v-3.8
		C58.4,24.6,56.1,22.2,53.2,22.2z M12.8,15.1H5.6v5h9.8v-2.4C15.3,16.3,14.2,15.1,12.8,15.1z" class="color000000 svgShape"/></svg>