<svg xmlns="http://www.w3.org/2000/svg" enable-background="new 0 0 50 50" viewBox="0 0 50 50"><path fill="#2d8086" d="M21.3,38.4l-7.2-12.3c4.6,3.9,10.6,3.6,14.9-0.4c0,0,0.1,0.1,0.2,0.2L21.3,38.4z" class="color000000 svgShape"/><path fill="#2d8086" d="M32.2,48.9H3.1c-0.5,0-0.9-0.4-0.9-0.9v-4.4c0-7,3.8-13.5,10-16.8c0,0,0.1,0,0.1-0.1l8.2,14c0.3,0.6,1.2,0.6,1.6,0
				l8.6-13.8c1,0.6,1.9,1.2,2.8,1.9c-3.9,1.8-6.6,5.8-6.6,10.4C26.8,43.3,29,46.9,32.2,48.9z" class="color000000 svgShape"/><path stroke="#f3f3f3" stroke-linecap="round" stroke-linejoin="round" stroke-miterlimit="10" stroke-width="1.83" d="M34.4,48
			" class="colorStroke000000 svgStroke"/><path fill="#2d8086" d="M17,19.4c-0.3-0.3-0.4-0.9-0.1-1.2c0.3-0.4,0.9-0.4,1.2-0.1c1.3,1.2,3.3,2.3,6.7-0.1c0.4-0.3,0.9-0.2,1.2,0.2
			c0.3,0.4,0.2,0.9-0.2,1.2C22.8,21.6,19.8,21.9,17,19.4z" class="color000000 svgShape"/><path fill="#2d8086" d="M31.9,12.1C31.6,5.5,27.3,1.1,21.3,1.1c-6,0-10.3,4.4-10.6,11.1c-2.3,1.7-1.8,5.2,0.8,6.2c3.6,11.3,16.1,11.4,19.7,0
			C33.8,17.3,34.2,13.8,31.9,12.1z M30.2,16.8c-0.3,0.1-0.6,0.3-0.7,0.6c-1.1,4-4.2,7.7-8.3,7.7c-4.1,0-7.1-3.8-8.3-7.7
			c-0.1-0.3-0.3-0.6-0.7-0.6c-1.6-0.4-1.9-2.5-0.4-3.3c0.3-0.2,0.5-0.5,0.5-0.8c0-1,0.1-1.9,0.3-2.7c1.7,0,5.6-0.2,7.9-2.3
			C22.6,6,24,10,29.7,10c0,0,0,0,0,0c0.2,0.9,0.3,1.8,0.3,2.7c0,0.3,0.2,0.6,0.5,0.8C32.1,14.2,31.8,16.4,30.2,16.8z" class="color000000 svgShape"/><circle cx="24.5" cy="13" r="2.3" fill="#2d8086" class="color000000 svgShape"/><circle cx="18" cy="13" r="2.3" fill="#2d8086" class="color000000 svgShape"/><path fill="#2d8086" d="M38.3,29.7c-5.2,0-9.5,4.3-9.5,9.5c0,5.2,4.3,9.5,9.5,9.5c5.2,0,9.5-4.3,9.5-9.5C47.8,33.9,43.6,29.7,38.3,29.7z
			 M43.2,36.7L37,42.9c-0.2,0.2-0.4,0.3-0.6,0.3s-0.4-0.1-0.6-0.3l-2.3-2.3c-0.3-0.3-0.3-0.9,0-1.2c0.3-0.3,0.9-0.3,1.2,0l1.7,1.7
			l5.6-5.6c0.3-0.3,0.9-0.3,1.2,0S43.5,36.4,43.2,36.7z" class="color000000 svgShape"/></svg>